<?xml version="1.0" standalone="no"?><!DOCTYPE svg PUBLIC "-//W3C//DTD SVG 1.1//EN" "http://www.w3.org/Graphics/SVG/1.1/DTD/svg11.dtd"><svg height="1024" node-id="1" sillyvg="true" template-height="1024" template-width="1024" version="1.1" viewBox="0 0 1024 1024" width="1024" xmlns="http://www.w3.org/2000/svg" xmlns:xlink="http://www.w3.org/1999/xlink"><defs node-id="113"><linearGradient gradientUnits="objectBoundingBox" id="linearGradient-1" node-id="5" spreadMethod="pad" x1="0.2746384" x2="0.64853907" y1="0.44224197" y2="0.6068124"><stop offset="0" stop-color="#556bed"></stop><stop offset="0.30577362" stop-color="#2c82f4"></stop><stop offset="0.31232017" stop-color="#52a3e6"></stop><stop offset="0.59239715" stop-color="#397fff"></stop><stop offset="0.59775716" stop-color="#3050ee" stop-opacity="0.9970292"></stop><stop offset="1" stop-color="#3d55ea" stop-opacity="0.9664281"></stop></linearGradient><linearGradient gradientUnits="objectBoundingBox" id="linearGradient-2" node-id="12" spreadMethod="pad" x1="0.6080056" x2="0.5149195" y1="-0.09670857" y2="0.9641382"><stop offset="0" stop-color="#0589fa"></stop><stop offset="0.13462792" stop-color="#0064fd"></stop><stop offset="0.34314767" stop-color="#4791ff"></stop><stop offset="0.6450298" stop-color="#2086fe"></stop><stop offset="0.82138956" stop-color="#007dfe"></stop><stop offset="1" stop-color="#0a59dc"></stop></linearGradient><linearGradient gradientUnits="objectBoundingBox" id="linearGradient-3" node-id="19" spreadMethod="pad" x1="0.000000000000000021370923" x2="1" y1="0.45497262" y2="0.45497262"><stop offset="0" stop-color="#556bed"></stop><stop offset="0.3074989" stop-color="#2c82f4"></stop><stop offset="0.8170469" stop-color="#3e5ffb"></stop><stop offset="1" stop-color="#3d55ea" stop-opacity="0.9664281"></stop></linearGradient><linearGradient gradientUnits="objectBoundingBox" id="linearGradient-4" node-id="24" spreadMethod="pad" x1="0.37946784" x2="0.56292605" y1="0.19760361" y2="0.9107484"><stop offset="0" stop-color="#0ef1fd"></stop><stop offset="1" stop-color="#06defb" stop-opacity="0"></stop></linearGradient><linearGradient gradientUnits="objectBoundingBox" id="linearGradient-6" node-id="34" spreadMethod="pad" x1="0.9981698" x2="0" y1="0.5" y2="0.5"><stop offset="0" stop-color="#a7c2ff"></stop><stop offset="1" stop-color="#eaf1ff"></stop></linearGradient><linearGradient gradientUnits="objectBoundingBox" id="linearGradient-7" node-id="37" spreadMethod="pad" x1="1" x2="0" y1="0.5" y2="0.5"><stop offset="0" stop-color="#c8d1ff"></stop><stop offset="1" stop-color="#ffffff"></stop></linearGradient><linearGradient gradientUnits="objectBoundingBox" id="linearGradient-8" node-id="40" spreadMethod="pad" x1="0.5" x2="0.5" y1="0" y2="1"><stop offset="0" stop-color="#1f5fff" stop-opacity="0"></stop><stop offset="1" stop-color="#0d3aff" stop-opacity="0.3716401"></stop></linearGradient><linearGradient gradientUnits="objectBoundingBox" id="linearGradient1" node-id="177" spreadMethod="pad" x1="0.5" x2="0.5" y1="0" y2="1"><stop offset="0" stop-color="#3e65ff"></stop><stop offset="1" stop-color="#72f0ff"></stop></linearGradient><linearGradient gradientUnits="objectBoundingBox" id="linearGradient-9" node-id="43" spreadMethod="pad" x1="0.5" x2="0.5" y1="0" y2="1"><stop offset="0" stop-color="#3e65ff"></stop><stop offset="1" stop-color="#72f0ff"></stop></linearGradient><linearGradient gradientUnits="objectBoundingBox" id="linearGradient-11" node-id="48" spreadMethod="pad" x1="0.5" x2="0.5" y1="0.25170276" y2="1"><stop offset="0" stop-color="#ffffff" stop-opacity="0"></stop><stop offset="1" stop-color="#92c5ff" stop-opacity="0.1981261"></stop></linearGradient><linearGradient gradientUnits="objectBoundingBox" id="linearGradient-12" node-id="51" spreadMethod="pad" x1="0.5" x2="0.5" y1="0.21499257" y2="1"><stop offset="0" stop-color="#ffffff" stop-opacity="0"></stop><stop offset="1" stop-color="#92c5ff" stop-opacity="0.1981261"></stop></linearGradient><linearGradient gradientUnits="objectBoundingBox" id="linearGradient-13" node-id="54" spreadMethod="pad" x1="-0.00000000000000004965646" x2="1" y1="0.48338035" y2="0.5257215"><stop offset="0" stop-color="#556bed"></stop><stop offset="0.22628002" stop-color="#2c82f4"></stop><stop offset="0.42540547" stop-color="#2b5ced"></stop><stop offset="0.60926175" stop-color="#6874ff"></stop><stop offset="0.7225545" stop-color="#3e5ffb"></stop><stop offset="0.80829084" stop-color="#3d55ea" stop-opacity="0.9664281"></stop><stop offset="0.9020706" stop-color="#4675ff"></stop><stop offset="1" stop-color="#9fe2fd"></stop></linearGradient><linearGradient gradientUnits="objectBoundingBox" id="linearGradient-15" node-id="66" spreadMethod="pad" x1="0.5" x2="0.5" y1="0.86286473" y2="1.0687842"><stop offset="0" stop-color="#5cb3ff"></stop><stop offset="0.9996176" stop-color="#dcf2ff"></stop></linearGradient><radialGradient cx="0.5" cy="0.5" fx="0.5" fy="0.5" gradientUnits="objectBoundingBox" id="radialGradient-14" node-id="63" r="1.1703764" rev="12" spreadMethod="pad"><stop offset="0" stop-color="#1e5dff"></stop><stop offset="1" stop-color="#2a64f6"></stop></radialGradient><radialGradient cx="0.5" cy="0.5" fx="0.5" fy="0.5" gradientUnits="objectBoundingBox" id="radialGradient-16" node-id="69" r="0.5" rev="11" spreadMethod="pad"><stop offset="0" stop-color="#00f6ff"></stop><stop offset="1" stop-color="#00fffe" stop-opacity="0"></stop></radialGradient><radialGradient cx="0.5" cy="0.5" fx="0.5" fy="0.5" gradientUnits="objectBoundingBox" id="radialGradient-17" node-id="72" r="0.43823937" rev="10" spreadMethod="pad"><stop offset="0" stop-color="#ffffff" stop-opacity="0.7709517"></stop><stop offset="1" stop-color="#ffffff" stop-opacity="0"></stop></radialGradient><radialGradient cx="0.5" cy="0.5" fx="0.5" fy="0.5" gradientUnits="objectBoundingBox" id="radialGradient1" node-id="244" r="0.364086" rev="9" spreadMethod="pad"><stop offset="0" stop-color="#ffffff"></stop><stop offset="1" stop-color="#006dff" stop-opacity="0"></stop></radialGradient><radialGradient cx="0.5" cy="0.5" fx="0.5" fy="0.5" gradientUnits="objectBoundingBox" id="radialGradient2" node-id="251" r="0.364086" rev="8" spreadMethod="pad"><stop offset="0" stop-color="#ffffff"></stop><stop offset="1" stop-color="#006dff" stop-opacity="0"></stop></radialGradient><radialGradient cx="0.5" cy="0.5" fx="0.5" fy="0.5" gradientUnits="objectBoundingBox" id="radialGradient3" node-id="258" r="0.364086" rev="7" spreadMethod="pad"><stop offset="0" stop-color="#ffffff"></stop><stop offset="1" stop-color="#006dff" stop-opacity="0"></stop></radialGradient><radialGradient cx="0.5" cy="0.5" fx="0.5" fy="0.5" gradientUnits="objectBoundingBox" id="radialGradient4" node-id="265" r="0.364086" rev="6" spreadMethod="pad"><stop offset="0" stop-color="#ffffff"></stop><stop offset="1" stop-color="#006dff" stop-opacity="0"></stop></radialGradient><radialGradient cx="0.5" cy="0.5" fx="0.5" fy="0.5" gradientUnits="objectBoundingBox" id="radialGradient5" node-id="272" r="0.364086" rev="5" spreadMethod="pad"><stop offset="0" stop-color="#ffffff"></stop><stop offset="1" stop-color="#006dff" stop-opacity="0"></stop></radialGradient><radialGradient cx="0.5" cy="0.5" fx="0.5" fy="0.5" gradientUnits="objectBoundingBox" id="radialGradient6" node-id="279" r="0.364086" rev="4" spreadMethod="pad"><stop offset="0" stop-color="#ffffff"></stop><stop offset="1" stop-color="#006dff" stop-opacity="0"></stop></radialGradient><radialGradient cx="0.5" cy="0.5" fx="0.5" fy="0.5" gradientUnits="objectBoundingBox" id="radialGradient7" node-id="286" r="0.364086" rev="3" spreadMethod="pad"><stop offset="0" stop-color="#ffffff"></stop><stop offset="1" stop-color="#006dff" stop-opacity="0"></stop></radialGradient><radialGradient cx="0.5" cy="0.5" fx="0.5" fy="0.5" gradientUnits="objectBoundingBox" id="radialGradient8" node-id="293" r="0.364086" rev="2" spreadMethod="pad"><stop offset="0" stop-color="#ffffff"></stop><stop offset="1" stop-color="#006dff" stop-opacity="0"></stop></radialGradient><radialGradient cx="0.5" cy="0.5" fx="0.5" fy="0.5" gradientUnits="objectBoundingBox" id="radialGradient-18" node-id="75" r="0.364086" rev="1" spreadMethod="pad"><stop offset="0" stop-color="#ffffff"></stop><stop offset="1" stop-color="#006dff" stop-opacity="0"></stop></radialGradient><filter filterUnits="objectBoundingBox" height="99.25614" id="filter-5" node-id="27" width="112.014" x="-3.5279999" y="-6.467603"><feOffset color-interpolation-filters="linearRGB" dx="4" dy="0" in="SourceAlpha" result="shadowOffsetOuter1"></feOffset><feGaussianBlur color-interpolation-filters="linearRGB" in="shadowOffsetOuter1" result="shadowBlurOuter1" stdDeviation="1.5 1.5"></feGaussianBlur><feColorMatrix color-interpolation-filters="linearRGB" in="shadowBlurOuter1" result="shadowMatrixOuter1" type="matrix" values="0 0 0 0 0.15542425 0 0 0 0 0.31284916 0 0 0 0 0.7973279 0 0 0 0.40433785 0"></feColorMatrix><feMerge color-interpolation-filters="linearRGB" result="result4"><feMergeNode in="shadowMatrixOuter1"></feMergeNode><feMergeNode in="SourceGraphic"></feMergeNode></feMerge></filter><filter filterUnits="objectBoundingBox" height="102" id="filter-10" node-id="46" width="779.80804" x="3" y="396.58487"><feGaussianBlur color-interpolation-filters="linearRGB" in="SourceGraphic" result="result1" stdDeviation="0 0"></feGaussianBlur></filter></defs><path d="M 0.00 0.00 L 1024.00 0.00 L 1024.00 1024.00 L 0.00 1024.00 Z" fill="#080d23" fill-opacity="0" fill-rule="nonzero" node-id="327" stroke="none" target-height="1024" target-width="1024" target-x="0" target-y="0"></path><g node-id="329"><path d="M 546.30 481.30 L 638.50 517.30 L 626.00 526.40 L 638.50 517.30 L 675.40 515.00 L 740.00 500.00 L 740.00 511.00 L 584.80 626.00 L 478.00 635.00 L 604.10 542.50 L 478.00 635.00 L 393.00 593.50 L 271.00 619.80 L 271.00 608.80 L 293.40 603.60 L 423.70 509.50 L 546.30 481.30 Z" fill="#0a26b1" fill-rule="evenodd" group-id="1" id="形状结合" node-id="81" stroke="none" target-height="153.70001" target-width="469" target-x="271" target-y="481.3"></path><path d="M 740.00 500.00 L 584.80 615.00 L 478.00 624.00 L 638.50 506.30 L 740.00 500.00 Z M 546.30 470.30 L 638.50 506.30 L 478.00 624.00 L 393.00 582.50 L 271.00 608.70 L 423.70 498.50 L 546.30 470.30 Z" fill="url(#linearGradient-1)" fill-rule="evenodd" group-id="1" id="形状备份" node-id="82" stroke="none" target-height="153.70001" target-width="469" target-x="271" target-y="470.3"></path></g><g node-id="330"><path d="M 480.00 236.90 L 492.20 236.70 L 503.90 237.80 L 509.50 238.90 L 556.30 250.50 L 555.70 263.70 L 559.90 268.20 L 563.90 272.90 L 567.50 277.90 L 570.80 283.20 L 573.80 288.60 L 576.40 294.30 L 578.70 300.30 L 580.60 306.50 L 582.10 312.80 L 583.10 319.20 L 583.80 325.90 L 584.00 332.90 L 583.80 338.70 L 583.00 345.00 L 581.60 352.00 L 579.60 359.70 L 576.80 368.10 L 573.20 377.40 L 568.70 387.50 L 563.20 398.60 L 556.50 410.70 L 548.70 423.90 L 544.00 533.00 L 480.50 519.00 L 480.60 518.20 L 480.00 518.90 L 463.50 500.60 L 448.80 483.70 L 435.90 467.90 L 424.60 453.30 L 414.90 439.80 L 406.40 427.30 L 399.30 415.70 L 393.30 405.10 L 388.40 395.20 L 384.40 386.10 L 381.30 377.70 L 379.00 370.00 L 377.40 362.90 L 376.40 356.30 L 376.00 350.20 L 376.30 341.80 L 377.00 334.80 L 378.10 327.90 L 379.70 321.10 L 381.80 314.40 L 384.20 307.90 L 387.00 301.60 L 390.20 295.40 L 393.80 289.50 L 397.70 283.80 L 401.90 278.30 L 406.50 273.10 L 411.30 268.20 L 416.40 263.50 L 421.80 259.20 L 427.50 255.20 L 433.40 251.50 L 439.50 248.20 L 445.80 245.30 L 452.40 242.80 L 459.00 240.70 L 465.80 239.00 L 472.80 237.70 L 480.00 236.90 Z" fill="url(#linearGradient-2)" fill-rule="evenodd" group-id="2" id="形状结合" node-id="84" stroke="none" target-height="296.3" target-width="208" target-x="376" target-y="236.7"></path><path d="M 544.00 532.90 L 560.90 511.60 L 575.80 492.00 L 588.90 473.90 L 600.30 457.30 L 610.20 442.10 L 618.60 428.10 L 625.70 415.40 L 631.60 403.70 L 636.40 393.10 L 640.30 383.40 L 643.30 374.70 L 645.40 366.70 L 646.90 359.40 L 647.70 352.80 L 648.00 346.90 L 647.80 339.90 L 647.10 333.20 L 646.00 326.70 L 644.60 320.50 L 642.70 314.40 L 640.40 308.40 L 637.80 302.70 L 634.90 297.20 L 631.60 292.00 L 627.90 287.00 L 623.00 281.10 L 617.60 275.70 L 611.70 270.70 L 605.40 266.20 L 600.20 263.00 L 594.70 260.10 L 589.00 257.60 L 583.10 255.50 L 576.90 253.70 L 570.70 252.30 L 564.30 251.30 L 557.70 250.80 L 551.00 250.60 L 544.00 250.90 L 536.80 251.70 L 529.80 253.00 L 523.00 254.70 L 516.40 256.80 L 509.80 259.30 L 503.50 262.20 L 497.40 265.50 L 491.50 269.20 L 485.80 273.20 L 480.40 277.50 L 475.30 282.20 L 470.50 287.10 L 465.90 292.30 L 461.70 297.80 L 457.80 303.50 L 454.20 309.40 L 451.00 315.60 L 448.20 321.90 L 445.80 328.40 L 443.70 335.10 L 442.10 341.90 L 441.00 348.80 L 440.30 355.80 L 440.00 363.00 L 440.30 369.10 L 441.20 375.70 L 442.70 382.90 L 444.90 390.60 L 448.00 399.00 L 451.90 408.10 L 456.80 418.00 L 462.70 428.70 L 469.80 440.30 L 478.30 452.90 L 488.10 466.60 L 499.40 481.30 L 512.50 497.20 L 527.30 514.40 L 544.00 532.90 Z" fill="url(#linearGradient-3)" fill-rule="evenodd" group-id="2" id="椭圆形备份" node-id="85" stroke="none" target-height="282.30002" target-width="208" target-x="440" target-y="250.6"></path><path d="M 544.00 250.90 L 551.00 250.60 L 557.70 250.80 L 564.30 251.30 L 570.70 252.30 L 576.90 253.70 L 583.10 255.50 L 589.00 257.60 L 594.70 260.10 L 600.20 263.00 L 605.40 266.20 L 611.70 270.70 L 617.60 275.70 L 623.00 281.10 L 627.90 287.00 L 631.60 292.00 L 634.90 297.20 L 637.80 302.70 L 640.40 308.40 L 642.70 314.40 L 644.60 320.50 L 646.00 326.70 L 647.10 333.20 L 647.80 339.90 L 648.00 346.90 L 647.70 352.80 L 646.90 359.40 L 645.40 366.70 L 643.30 374.70 L 640.30 383.40 L 636.40 393.10 L 631.60 403.70 L 625.70 415.40 L 618.60 428.10 L 610.20 442.10 L 600.30 457.30 L 588.90 473.90 L 575.80 492.00 L 560.90 511.60 L 544.00 532.90 L 527.30 514.40 L 512.50 497.20 L 499.40 481.30 L 488.10 466.60 L 478.30 452.90 L 469.80 440.30 L 462.70 428.70 L 456.80 418.00 L 451.90 408.10 L 448.00 399.00 L 444.90 390.60 L 442.70 382.90 L 441.20 375.70 L 440.30 369.10 L 440.00 363.00 L 440.30 355.80 L 441.00 348.80 L 442.10 341.90 L 443.70 335.10 L 445.80 328.40 L 448.20 321.90 L 451.00 315.60 L 454.20 309.40 L 457.80 303.50 L 461.70 297.80 L 465.90 292.30 L 470.50 287.10 L 475.30 282.20 L 480.40 277.50 L 485.80 273.20 L 491.50 269.20 L 497.40 265.50 L 503.50 262.20 L 509.80 259.30 L 516.40 256.80 L 523.00 254.70 L 529.80 253.00 L 536.80 251.70 L 544.00 250.90 Z M 544.20 253.90 L 537.50 254.70 L 531.00 255.80 L 524.60 257.30 L 518.40 259.30 L 512.30 261.60 L 504.80 265.00 L 497.70 268.80 L 490.90 273.20 L 484.50 278.10 L 478.30 283.40 L 472.70 289.10 L 467.40 295.20 L 462.50 301.70 L 458.20 308.50 L 454.30 315.60 L 451.00 323.00 L 448.20 330.60 L 446.30 336.90 L 444.90 343.20 L 443.90 349.70 L 443.20 356.30 L 443.00 363.00 L 443.20 368.50 L 444.00 374.40 L 445.20 380.80 L 447.10 387.60 L 449.70 395.10 L 452.90 403.10 L 457.00 411.80 L 461.90 421.20 L 467.80 431.30 L 474.60 442.10 L 482.50 453.80 L 491.60 466.30 L 502.10 479.80 L 513.90 494.30 L 527.20 509.80 L 543.90 528.30 L 562.90 504.20 L 577.80 484.20 L 590.80 465.90 L 602.10 449.20 L 611.60 433.90 L 619.70 420.10 L 626.30 407.60 L 631.70 396.30 L 636.10 386.10 L 639.40 376.90 L 641.90 368.50 L 643.60 360.90 L 644.60 354.10 L 645.00 346.90 L 644.80 340.10 L 644.10 333.60 L 643.10 327.30 L 641.70 321.30 L 639.90 315.40 L 637.10 308.20 L 633.70 301.30 L 629.90 294.90 L 625.60 288.80 L 620.80 283.10 L 615.50 277.90 L 609.90 273.10 L 603.80 268.70 L 597.40 264.90 L 590.60 261.60 L 583.60 258.80 L 576.10 256.60 L 570.10 255.20 L 563.90 254.30 L 557.50 253.80 L 551.00 253.60 L 544.20 253.90 Z" fill="url(#linearGradient-4)" fill-rule="nonzero" group-id="2" id="椭圆形备份" node-id="86" stroke="none" target-height="282.30002" target-width="208" target-x="440" target-y="250.6"></path><g node-id="333"><path d="M 538.50 315.90 L 543.40 315.80 L 548.00 316.30 L 562.50 319.30 L 562.00 321.40 L 565.50 323.80 L 568.60 326.60 L 571.50 329.80 L 574.00 333.20 L 576.00 336.90 L 577.70 340.90 L 579.00 345.10 L 579.70 349.60 L 580.00 354.30 L 579.70 359.60 L 578.70 364.70 L 577.20 369.60 L 575.10 374.30 L 572.50 378.70 L 569.40 382.80 L 565.90 386.60 L 562.00 389.90 L 557.70 392.80 L 553.10 395.20 L 548.30 397.00 L 543.20 398.30 L 542.50 401.30 L 523.20 397.10 L 519.10 395.60 L 515.30 393.60 L 511.80 391.10 L 508.60 388.40 L 505.70 385.20 L 503.10 381.80 L 501.00 378.00 L 499.30 374.00 L 498.00 369.70 L 497.30 365.30 L 497.00 360.50 L 497.20 356.20 L 497.80 352.00 L 498.90 348.00 L 500.30 344.10 L 504.10 336.80 L 509.20 330.20 L 515.30 324.70 L 522.30 320.40 L 526.20 318.70 L 530.10 317.40 L 534.20 316.50 L 538.50 315.90 Z" fill="url(#linearGradient-6)" fill-rule="evenodd" filter="url(#filter-5)" group-id="2,5" id="形状结合" node-id="88" stroke="none" target-height="85.5" target-width="83" target-x="497" target-y="315.8"></path><path d="M 553.50 401.90 L 557.80 401.40 L 561.90 400.40 L 565.80 399.10 L 569.70 397.40 L 576.70 393.10 L 582.80 387.60 L 587.90 381.00 L 591.70 373.70 L 593.10 369.80 L 594.20 365.80 L 594.80 361.60 L 595.00 357.30 L 594.80 353.00 L 594.10 348.90 L 593.10 345.10 L 591.70 341.40 L 590.00 337.90 L 585.50 331.60 L 579.90 326.40 L 573.30 322.50 L 569.70 321.00 L 565.90 319.80 L 561.90 319.10 L 557.80 318.80 L 553.50 318.90 L 549.20 319.50 L 545.10 320.40 L 541.20 321.70 L 533.70 325.40 L 527.10 330.30 L 521.50 336.40 L 519.10 339.80 L 515.30 347.10 L 513.90 351.00 L 512.80 355.00 L 512.20 359.20 L 512.00 363.50 L 512.20 367.80 L 512.90 371.90 L 513.90 375.70 L 515.30 379.40 L 519.10 386.20 L 524.20 391.90 L 530.30 396.50 L 537.30 399.80 L 541.10 401.00 L 545.10 401.70 L 549.20 402.00 L 553.50 401.90 Z" fill="url(#linearGradient-7)" fill-rule="evenodd" filter="url(#filter-5)" group-id="2,5" id="椭圆形备份-2" node-id="89" stroke="none" target-height="83.20001" target-width="83" target-x="512" target-y="318.8"></path></g></g><g node-id="331"><path d="M 139.60 406.40 L 884.60 406.40 L 779.70 731.60 L 244.50 731.60 Z" fill="url(#linearGradient-8)" fill-rule="evenodd" group-id="3" id="矩形" node-id="91" stroke="none" target-height="325.19998" target-width="745" target-x="139.6" target-y="406.4"></path><g node-id="334"><path d="M 902.40 854.00 L 902.10 855.90 L 901.30 857.90 L 899.70 860.00 L 897.30 862.20 L 893.90 864.60 L 889.00 867.20 L 882.50 870.10 L 874.10 873.10 L 863.50 876.20 L 850.30 879.50 L 837.80 882.10 L 806.90 887.40 L 788.20 890.10 L 750.10 894.40 L 728.80 896.40 L 696.50 899.00 L 661.70 901.10 L 626.20 902.80 L 588.90 904.00 L 551.20 904.70 L 512.50 905.00 L 473.80 904.70 L 436.10 904.00 L 398.80 902.80 L 363.30 901.10 L 328.50 899.00 L 296.20 896.40 L 274.90 894.40 L 236.80 890.10 L 218.10 887.40 L 187.20 882.10 L 174.70 879.50 L 161.50 876.20 L 150.90 873.10 L 142.50 870.10 L 135.90 867.20 L 131.10 864.60 L 127.70 862.20 L 125.30 860.00 L 123.70 857.90 L 122.90 855.90 L 122.60 854.00 L 122.90 852.10 L 123.70 850.10 L 125.30 848.00 L 127.70 845.80 L 131.10 843.40 L 135.90 840.80 L 142.50 837.90 L 150.90 834.90 L 161.50 831.80 L 174.70 828.50 L 187.20 825.90 L 218.10 820.60 L 236.80 817.90 L 274.90 813.60 L 296.20 811.60 L 328.50 809.00 L 363.30 806.90 L 398.80 805.20 L 436.10 804.00 L 473.80 803.30 L 512.50 803.00 L 551.20 803.30 L 588.90 804.00 L 626.20 805.20 L 661.70 806.90 L 696.50 809.00 L 728.80 811.60 L 750.10 813.60 L 788.20 817.90 L 806.90 820.60 L 837.80 825.90 L 850.30 828.50 L 863.50 831.80 L 874.10 834.90 L 882.50 837.90 L 889.00 840.80 L 893.90 843.40 L 897.30 845.80 L 899.70 848.00 L 901.30 850.10 L 902.10 852.10 L 902.40 854.00 Z" fill="#001d69" fill-opacity="0.3005354" fill-rule="evenodd" filter="url(#filter-10)" group-id="3,6" id="椭圆形备份-2" node-id="92" stroke="url(#linearGradient1)" stroke-linecap="butt" stroke-width="6" target-height="102" target-width="779.80005" target-x="122.6" target-y="803"></path></g><path d="M 905.40 854.40 L 905.10 856.50 L 904.20 858.60 L 902.70 860.80 L 900.20 863.10 L 896.80 865.70 L 891.90 868.40 L 885.40 871.40 L 876.90 874.60 L 866.20 877.90 L 852.90 881.40 L 840.30 884.20 L 809.20 889.80 L 790.30 892.60 L 751.90 897.20 L 730.50 899.30 L 697.90 902.00 L 662.80 904.30 L 627.10 906.10 L 589.50 907.40 L 551.50 908.10 L 512.50 908.40 L 473.50 908.10 L 435.50 907.40 L 397.90 906.10 L 362.10 904.30 L 327.10 902.00 L 294.50 899.30 L 273.10 897.20 L 234.70 892.60 L 215.80 889.80 L 184.70 884.20 L 172.10 881.40 L 158.80 877.90 L 148.10 874.60 L 139.60 871.40 L 133.00 868.40 L 128.20 865.70 L 124.70 863.10 L 122.30 860.80 L 120.80 858.60 L 119.90 856.50 L 119.60 854.40 L 119.90 852.40 L 120.80 850.30 L 122.30 848.10 L 124.70 845.70 L 128.20 843.10 L 133.00 840.40 L 139.60 837.40 L 148.10 834.20 L 158.80 830.90 L 172.10 827.40 L 184.70 824.60 L 215.80 819.00 L 234.70 816.20 L 273.10 811.60 L 294.50 809.50 L 327.10 806.80 L 362.10 804.50 L 397.90 802.80 L 435.50 801.50 L 473.50 800.70 L 512.50 800.40 L 551.50 800.70 L 589.50 801.50 L 627.10 802.80 L 662.80 804.50 L 697.90 806.80 L 730.50 809.50 L 751.90 811.60 L 790.30 816.20 L 809.20 819.00 L 840.30 824.60 L 852.90 827.40 L 866.20 830.90 L 876.90 834.20 L 885.40 837.40 L 891.90 840.40 L 896.80 843.10 L 900.20 845.70 L 902.70 848.10 L 904.20 850.30 L 905.10 852.40 L 905.40 854.40 Z" fill="#001d69" fill-opacity="0.3005354" fill-rule="evenodd" group-id="3" id="椭圆形备份-7" node-id="93" stroke="none" target-height="108" target-width="785.80005" target-x="119.6" target-y="800.4"></path><path d="M 512.50 800.40 L 573.60 801.10 L 602.60 801.80 L 659.10 804.30 L 711.40 807.80 L 758.20 812.30 L 780.70 815.00 L 801.00 817.80 L 819.10 820.60 L 837.10 824.00 L 852.50 827.30 L 865.50 830.70 L 875.40 833.70 L 883.50 836.60 L 889.90 839.40 L 895.00 842.00 L 898.60 844.40 L 901.30 846.60 L 903.20 848.70 L 904.40 850.60 L 905.10 852.50 L 905.40 854.40 L 905.10 856.30 L 904.40 858.20 L 903.20 860.20 L 901.30 862.20 L 898.60 864.50 L 895.00 866.80 L 889.90 869.50 L 883.50 872.20 L 875.40 875.10 L 865.50 878.20 L 852.50 881.50 L 837.10 884.80 L 819.10 888.20 L 801.00 891.10 L 780.70 893.90 L 735.70 898.90 L 685.30 902.90 L 631.60 905.90 L 602.60 907.00 L 543.60 908.20 L 481.40 908.20 L 451.40 907.80 L 393.40 905.90 L 339.70 902.90 L 313.60 901.00 L 266.70 896.60 L 244.20 893.90 L 224.00 891.10 L 205.90 888.20 L 187.80 884.80 L 172.50 881.50 L 159.50 878.20 L 149.60 875.10 L 141.50 872.20 L 135.00 869.50 L 130.00 866.80 L 126.30 864.50 L 123.70 862.20 L 121.80 860.20 L 120.60 858.20 L 119.80 856.30 L 119.60 854.40 L 119.80 852.50 L 120.60 850.60 L 121.80 848.70 L 123.70 846.60 L 126.30 844.40 L 130.00 842.00 L 135.00 839.40 L 141.50 836.60 L 149.60 833.70 L 159.50 830.70 L 172.50 827.30 L 187.80 824.00 L 205.90 820.60 L 224.00 817.80 L 244.20 815.00 L 289.30 810.00 L 313.60 807.80 L 365.80 804.30 L 422.40 801.80 L 451.40 801.10 L 512.50 800.40 Z M 512.50 806.40 L 473.10 806.70 L 435.00 807.50 L 397.40 808.80 L 361.80 810.50 L 327.00 812.80 L 294.70 815.50 L 253.80 819.80 L 235.50 822.20 L 201.90 827.40 L 173.90 833.20 L 162.10 836.20 L 152.30 839.10 L 139.00 844.20 L 130.90 848.50 L 128.30 850.50 L 125.80 853.40 L 125.60 854.40 L 125.80 855.40 L 126.80 856.90 L 130.90 860.30 L 139.00 864.70 L 152.30 869.70 L 162.10 872.70 L 173.90 875.70 L 187.80 878.70 L 217.70 884.00 L 235.50 886.70 L 273.50 891.20 L 294.70 893.30 L 327.00 896.00 L 361.80 898.30 L 397.40 900.10 L 435.00 901.40 L 473.10 902.10 L 512.50 902.40 L 551.90 902.10 L 590.00 901.40 L 627.50 900.10 L 663.20 898.30 L 698.00 896.00 L 730.30 893.30 L 751.50 891.20 L 789.50 886.70 L 807.30 884.00 L 837.10 878.70 L 851.10 875.70 L 862.90 872.70 L 872.70 869.70 L 886.00 864.70 L 894.10 860.30 L 896.60 858.40 L 898.20 856.90 L 899.20 855.40 L 899.40 854.40 L 899.20 853.40 L 898.20 851.90 L 894.10 848.50 L 890.60 846.40 L 880.10 841.70 L 872.70 839.10 L 862.90 836.20 L 851.10 833.20 L 823.10 827.40 L 789.50 822.20 L 771.20 819.80 L 730.30 815.50 L 698.00 812.80 L 663.20 810.50 L 627.50 808.80 L 590.00 807.50 L 551.90 806.70 L 512.50 806.40 Z" fill="url(#linearGradient-9)" fill-rule="nonzero" group-id="3" id="椭圆形备份-7" node-id="94" stroke="none" target-height="107.79999" target-width="785.80005" target-x="119.6" target-y="800.4"></path><path d="M 512.60 604.80 L 564.10 605.40 L 588.50 606.10 L 636.10 608.30 L 680.20 611.40 L 719.60 615.30 L 738.60 617.60 L 770.90 622.60 L 786.10 625.60 L 799.00 628.50 L 809.90 631.40 L 818.30 634.10 L 825.10 636.60 L 830.60 639.10 L 834.80 641.40 L 838.40 643.90 L 840.80 646.20 L 842.40 648.30 L 843.30 650.30 L 843.60 652.30 L 843.30 654.30 L 842.40 656.40 L 840.80 658.50 L 838.40 660.80 L 834.80 663.20 L 830.60 665.60 L 825.10 668.00 L 818.30 670.60 L 809.90 673.20 L 799.00 676.10 L 786.10 679.10 L 770.90 682.00 L 755.60 684.60 L 738.60 687.00 L 700.60 691.40 L 658.20 695.00 L 612.90 697.60 L 588.50 698.60 L 538.80 699.70 L 486.40 699.70 L 461.10 699.30 L 412.30 697.60 L 367.00 695.00 L 345.00 693.30 L 305.60 689.40 L 286.60 687.00 L 254.30 682.00 L 239.10 679.10 L 226.10 676.10 L 215.20 673.20 L 206.90 670.60 L 200.10 668.00 L 194.60 665.60 L 190.30 663.20 L 186.80 660.80 L 184.40 658.50 L 182.80 656.40 L 181.90 654.30 L 181.60 652.30 L 181.90 650.30 L 182.80 648.30 L 184.40 646.20 L 186.80 643.90 L 190.30 641.40 L 194.60 639.10 L 200.10 636.60 L 206.90 634.10 L 215.20 631.40 L 226.10 628.50 L 239.10 625.60 L 254.30 622.60 L 269.60 620.10 L 286.60 617.60 L 324.50 613.20 L 345.00 611.40 L 389.00 608.30 L 436.70 606.10 L 461.10 605.40 L 512.60 604.80 Z M 512.60 610.80 L 479.40 611.10 L 447.40 611.80 L 415.70 612.90 L 385.70 614.50 L 356.40 616.50 L 329.20 618.80 L 302.90 621.60 L 279.40 624.70 L 264.40 627.00 L 239.30 631.60 L 227.60 634.30 L 209.50 639.50 L 201.60 642.50 L 195.80 645.20 L 191.80 647.70 L 189.50 649.50 L 187.70 651.80 L 187.70 652.80 L 189.50 655.20 L 191.80 657.00 L 195.80 659.40 L 201.60 662.10 L 209.50 665.10 L 217.70 667.70 L 239.30 673.00 L 264.40 677.70 L 279.40 680.00 L 302.90 683.10 L 329.20 685.90 L 356.40 688.20 L 385.70 690.20 L 415.70 691.80 L 447.40 692.90 L 479.40 693.60 L 512.60 693.80 L 545.70 693.60 L 577.80 692.90 L 609.50 691.80 L 639.40 690.20 L 668.80 688.20 L 695.90 685.90 L 722.20 683.10 L 745.80 680.00 L 760.70 677.70 L 785.80 673.00 L 797.60 670.30 L 815.60 665.10 L 823.60 662.10 L 829.40 659.40 L 833.40 657.00 L 835.70 655.20 L 837.50 652.80 L 837.50 651.80 L 835.70 649.50 L 833.40 647.70 L 829.40 645.20 L 823.60 642.50 L 815.60 639.50 L 807.40 637.00 L 797.60 634.30 L 774.00 629.30 L 745.80 624.70 L 722.20 621.60 L 695.90 618.80 L 668.80 616.50 L 639.40 614.50 L 609.50 612.90 L 577.80 611.80 L 545.70 611.10 L 512.60 610.80 Z" fill="url(#linearGradient-11)" fill-rule="nonzero" group-id="3" id="椭圆形备份-3" node-id="95" stroke="none" target-height="94.900024" target-width="662" target-x="181.6" target-y="604.8"></path><path d="M 512.10 563.30 L 553.10 563.60 L 592.00 564.40 L 630.10 565.70 L 665.30 567.50 L 699.50 569.80 L 730.10 572.40 L 750.00 574.40 L 784.00 578.80 L 800.10 581.30 L 813.70 583.90 L 825.20 586.40 L 841.20 590.90 L 851.40 595.10 L 855.20 597.30 L 857.80 599.30 L 859.40 601.10 L 860.30 602.90 L 860.60 604.50 L 860.30 606.20 L 859.40 607.90 L 857.80 609.80 L 855.20 611.80 L 851.40 614.00 L 841.20 618.10 L 825.20 622.70 L 813.70 625.20 L 800.10 627.80 L 784.00 630.30 L 750.00 634.70 L 730.10 636.70 L 699.50 639.30 L 665.30 641.60 L 630.10 643.30 L 592.00 644.70 L 553.10 645.50 L 512.10 645.80 L 471.10 645.50 L 432.20 644.70 L 394.10 643.30 L 358.80 641.60 L 324.70 639.30 L 294.10 636.70 L 274.20 634.70 L 240.10 630.30 L 224.10 627.80 L 210.50 625.20 L 199.00 622.70 L 183.00 618.10 L 172.80 614.00 L 169.00 611.80 L 166.40 609.80 L 164.80 607.90 L 163.90 606.20 L 163.60 604.50 L 163.90 602.90 L 164.80 601.10 L 166.40 599.30 L 169.00 597.30 L 172.80 595.10 L 183.00 590.90 L 199.00 586.40 L 210.50 583.90 L 224.10 581.30 L 256.20 576.50 L 294.10 572.40 L 324.70 569.80 L 358.80 567.50 L 394.10 565.70 L 432.20 564.40 L 471.10 563.60 L 512.10 563.30 Z M 512.10 569.30 L 477.10 569.50 L 443.40 570.10 L 410.00 571.10 L 378.40 572.50 L 347.50 574.20 L 318.90 576.20 L 291.20 578.70 L 266.40 581.30 L 243.40 584.30 L 224.10 587.40 L 211.70 589.70 L 192.60 594.30 L 184.10 596.90 L 177.90 599.30 L 173.70 601.40 L 171.20 603.00 L 169.70 604.50 L 171.20 606.00 L 173.70 607.60 L 177.90 609.80 L 184.10 612.20 L 192.60 614.80 L 201.30 617.00 L 224.10 621.70 L 243.40 624.70 L 266.40 627.70 L 291.20 630.40 L 318.90 632.80 L 347.50 634.90 L 378.40 636.60 L 410.00 638.00 L 443.40 638.90 L 477.10 639.50 L 512.10 639.80 L 547.00 639.50 L 580.80 638.90 L 614.10 638.00 L 645.70 636.60 L 676.70 634.90 L 705.30 632.80 L 733.00 630.40 L 757.80 627.70 L 780.80 624.70 L 800.10 621.70 L 812.50 619.30 L 831.60 614.80 L 840.10 612.20 L 846.20 609.80 L 850.50 607.60 L 852.90 606.00 L 854.50 604.50 L 852.90 603.00 L 850.50 601.40 L 846.20 599.30 L 840.10 596.90 L 831.60 594.30 L 812.50 589.70 L 800.10 587.40 L 780.80 584.30 L 757.80 581.30 L 733.00 578.70 L 705.30 576.20 L 676.70 574.20 L 645.70 572.50 L 614.10 571.10 L 580.80 570.10 L 547.00 569.50 L 512.10 569.30 Z" fill="url(#linearGradient-12)" fill-rule="nonzero" group-id="3" id="椭圆形备份-4" node-id="96" stroke="none" target-height="82.5" target-width="697" target-x="163.6" target-y="563.3"></path><path d="M 826.60 728.40 L 826.60 834.80 L 826.30 836.20 L 825.50 837.70 L 824.10 839.40 L 821.70 841.10 L 818.30 843.10 L 812.70 845.50 L 804.90 848.00 L 794.60 850.70 L 772.00 855.20 L 757.50 857.50 L 735.10 860.40 L 708.80 863.10 L 681.20 865.40 L 650.40 867.40 L 618.60 868.90 L 584.20 870.10 L 549.10 870.80 L 512.10 871.10 L 475.10 870.80 L 440.00 870.10 L 405.60 868.90 L 373.80 867.40 L 343.00 865.40 L 315.40 863.10 L 289.10 860.40 L 266.70 857.50 L 252.20 855.20 L 229.60 850.70 L 219.30 848.00 L 211.50 845.50 L 205.90 843.10 L 202.40 841.10 L 200.10 839.40 L 198.60 837.70 L 197.90 836.20 L 197.60 834.80 L 197.60 728.40 L 826.60 728.40 Z" fill="url(#linearGradient-13)" fill-rule="evenodd" group-id="3" id="形状结合" node-id="97" stroke="none" target-height="142.69995" target-width="629" target-x="197.6" target-y="728.4"></path><path d="M 819.60 728.70 L 819.30 730.20 L 818.50 731.70 L 817.10 733.40 L 814.80 735.10 L 811.40 737.10 L 805.90 739.50 L 798.40 742.00 L 788.30 744.70 L 766.20 749.20 L 752.00 751.50 L 730.10 754.40 L 704.40 757.10 L 677.40 759.40 L 647.30 761.40 L 616.20 762.90 L 582.60 764.10 L 548.20 764.80 L 512.10 765.10 L 475.90 764.80 L 441.60 764.10 L 408.00 762.90 L 376.80 761.40 L 346.70 759.40 L 319.80 757.10 L 294.00 754.40 L 272.10 751.50 L 258.00 749.20 L 235.80 744.70 L 225.80 742.00 L 218.20 739.50 L 212.70 737.10 L 209.30 735.10 L 207.10 733.40 L 205.60 731.70 L 204.80 730.20 L 204.60 728.70 L 204.80 727.30 L 205.60 725.70 L 207.10 724.10 L 209.30 722.30 L 212.70 720.40 L 218.20 718.00 L 225.80 715.50 L 235.80 712.80 L 258.00 708.30 L 272.10 706.00 L 294.00 703.10 L 319.80 700.40 L 346.70 698.10 L 376.80 696.10 L 408.00 694.60 L 441.60 693.40 L 475.90 692.70 L 512.10 692.40 L 548.20 692.70 L 582.60 693.40 L 616.20 694.60 L 647.30 696.10 L 677.40 698.10 L 704.40 700.40 L 730.10 703.10 L 752.00 706.00 L 766.20 708.30 L 788.30 712.80 L 798.40 715.50 L 805.90 718.00 L 811.40 720.40 L 814.80 722.30 L 817.10 724.10 L 818.50 725.70 L 819.30 727.30 L 819.60 728.70 Z" fill="url(#radialGradient-14)" fill-rule="evenodd" group-id="3" id="椭圆形" node-id="98" stroke="none" target-height="72.69995" target-width="615" target-x="204.6" target-y="692.4"></path><path d="M 512.10 685.40 L 573.10 686.10 L 630.70 688.20 L 683.60 691.60 L 708.20 693.70 L 730.30 696.10 L 751.10 698.80 L 768.50 701.60 L 779.70 703.70 L 797.30 707.90 L 805.60 710.50 L 812.00 713.00 L 816.80 715.40 L 819.80 717.30 L 822.10 719.20 L 824.00 721.30 L 825.40 723.60 L 826.30 726.00 L 826.60 728.70 L 826.30 731.50 L 825.40 733.90 L 824.00 736.20 L 822.10 738.30 L 819.80 740.20 L 816.80 742.10 L 812.00 744.50 L 805.60 747.00 L 797.30 749.60 L 779.70 753.80 L 768.50 755.90 L 751.10 758.70 L 730.30 761.40 L 708.20 763.80 L 683.60 765.90 L 658.20 767.70 L 602.60 770.50 L 543.10 771.90 L 481.10 771.90 L 421.50 770.50 L 393.50 769.30 L 340.60 765.90 L 315.90 763.80 L 293.80 761.40 L 273.10 758.70 L 255.70 755.90 L 244.40 753.80 L 226.90 749.60 L 218.50 747.00 L 212.10 744.50 L 207.30 742.10 L 204.40 740.20 L 202.00 738.30 L 200.20 736.20 L 198.80 733.90 L 197.90 731.50 L 197.60 728.70 L 197.90 726.00 L 198.80 723.60 L 200.20 721.30 L 202.00 719.20 L 204.40 717.30 L 207.30 715.40 L 212.10 713.00 L 218.50 710.50 L 226.90 707.90 L 234.90 705.80 L 255.70 701.60 L 273.10 698.80 L 293.80 696.10 L 315.90 693.70 L 340.60 691.60 L 393.50 688.20 L 451.10 686.10 L 512.10 685.40 Z M 512.10 692.40 L 475.90 692.70 L 441.60 693.40 L 408.00 694.60 L 376.80 696.10 L 346.70 698.10 L 319.80 700.40 L 294.00 703.10 L 272.10 706.00 L 258.00 708.30 L 235.80 712.80 L 225.80 715.50 L 218.20 718.00 L 212.70 720.40 L 209.30 722.30 L 207.10 724.10 L 205.60 725.70 L 204.80 727.30 L 204.60 728.70 L 204.80 730.20 L 205.60 731.70 L 207.10 733.40 L 209.30 735.10 L 212.70 737.10 L 218.20 739.50 L 225.80 742.00 L 235.80 744.70 L 258.00 749.20 L 272.10 751.50 L 294.00 754.40 L 319.80 757.10 L 346.70 759.40 L 376.80 761.40 L 408.00 762.90 L 441.60 764.10 L 475.90 764.80 L 512.10 765.10 L 548.20 764.80 L 582.60 764.10 L 616.20 762.90 L 647.30 761.40 L 677.40 759.40 L 704.40 757.10 L 730.10 754.40 L 752.00 751.50 L 766.20 749.20 L 788.30 744.70 L 798.40 742.00 L 805.90 739.50 L 811.40 737.10 L 814.80 735.10 L 817.10 733.40 L 818.50 731.70 L 819.30 730.20 L 819.60 728.70 L 819.30 727.30 L 818.50 725.70 L 817.10 724.10 L 814.80 722.30 L 811.40 720.40 L 805.90 718.00 L 798.40 715.50 L 788.30 712.80 L 766.20 708.30 L 752.00 706.00 L 730.10 703.10 L 704.40 700.40 L 677.40 698.10 L 647.30 696.10 L 616.20 694.60 L 582.60 693.40 L 548.20 692.70 L 512.10 692.40 Z" fill="url(#linearGradient-15)" fill-rule="nonzero" group-id="3" id="椭圆形" node-id="99" stroke="none" target-height="86.5" target-width="629" target-x="197.6" target-y="685.4"></path><path d="M 513.00 765.00 L 570.40 764.30 L 625.90 762.10 L 677.70 758.80 L 702.00 756.60 L 724.00 754.30 L 745.10 751.70 L 763.20 749.00 L 774.80 746.90 L 793.30 742.80 L 801.70 740.40 L 808.00 738.10 L 812.70 736.00 L 817.40 732.80 L 818.60 731.40 L 819.30 730.00 L 819.50 728.80 L 818.60 726.10 L 815.50 723.20 L 812.60 721.50 L 808.00 719.40 L 801.60 717.10 L 793.20 714.80 L 774.70 710.70 L 744.90 706.00 L 723.80 703.30 L 701.80 701.10 L 652.30 697.20 L 598.30 694.50 L 541.40 693.00 L 483.60 693.00 L 427.10 694.50 L 373.60 697.20 L 324.70 701.10 L 303.00 703.30 L 282.20 706.00 L 264.40 708.70 L 243.10 712.70 L 226.50 717.10 L 220.30 719.40 L 215.70 721.50 L 212.90 723.20 L 211.10 724.70 L 209.20 727.50 L 209.00 728.80 L 209.90 731.40 L 211.10 732.80 L 213.00 734.30 L 215.70 736.00 L 220.30 738.10 L 226.60 740.40 L 234.80 742.80 L 253.00 746.90 L 264.60 749.00 L 282.40 751.70 L 303.20 754.30 L 325.00 756.60 L 349.10 758.80 L 400.50 762.10 L 455.70 764.30 L 513.00 765.00 Z" fill="url(#radialGradient-16)" fill-rule="evenodd" group-id="3" id="椭圆形" node-id="100" stroke="none" target-height="72" target-width="610.5" target-x="209" target-y="693"></path><path d="M 646.60 727.90 L 646.30 729.00 L 645.50 730.20 L 643.80 731.50 L 640.90 732.90 L 636.40 734.60 L 629.60 736.40 L 620.10 738.30 L 607.50 740.20 L 594.60 741.70 L 564.40 744.00 L 530.80 745.20 L 513.10 745.30 L 495.40 745.20 L 461.80 744.00 L 431.60 741.70 L 418.70 740.20 L 406.00 738.30 L 396.60 736.40 L 389.70 734.60 L 385.20 732.90 L 382.40 731.50 L 380.70 730.20 L 379.90 729.00 L 379.60 727.90 L 379.90 726.80 L 380.70 725.70 L 382.40 724.40 L 385.20 722.90 L 389.70 721.30 L 396.60 719.40 L 406.00 717.50 L 418.70 715.60 L 431.60 714.10 L 461.80 711.80 L 495.40 710.70 L 513.10 710.50 L 530.80 710.70 L 564.40 711.80 L 594.60 714.10 L 607.50 715.60 L 620.10 717.50 L 629.60 719.40 L 636.40 721.30 L 640.90 722.90 L 643.80 724.40 L 645.50 725.70 L 646.30 726.80 L 646.60 727.90 Z" fill="url(#radialGradient-17)" fill-rule="evenodd" group-id="3" id="椭圆形备份-8" node-id="101" stroke="none" target-height="34.799988" target-width="266.99997" target-x="379.6" target-y="710.5"></path></g><g node-id="332"><path d="M 242.00 385.50 L 241.70 388.50 L 241.00 391.30 L 239.70 393.80 L 238.10 396.10 L 236.10 398.10 L 233.80 399.70 L 231.30 401.00 L 228.50 401.70 L 225.50 402.00 L 222.50 401.70 L 219.70 401.00 L 217.20 399.70 L 214.90 398.10 L 212.90 396.10 L 211.30 393.80 L 210.00 391.30 L 209.30 388.50 L 209.00 385.50 L 209.30 382.50 L 210.00 379.70 L 211.30 377.20 L 212.90 374.90 L 214.90 372.90 L 217.20 371.30 L 219.70 370.00 L 222.50 369.30 L 225.50 369.00 L 228.50 369.30 L 231.30 370.00 L 233.80 371.30 L 236.10 372.90 L 238.10 374.90 L 239.70 377.20 L 241.00 379.70 L 241.70 382.50 L 242.00 385.50 Z" fill="url(#radialGradient1)" fill-rule="evenodd" group-id="4" id="椭圆形" node-id="103" stroke="none" target-height="33" target-width="33" target-x="209" target-y="369"></path><path d="M 383.00 197.50 L 382.20 201.90 L 380.10 205.60 L 376.80 208.30 L 374.90 209.20 L 370.50 210.00 L 366.10 209.20 L 362.40 207.10 L 359.70 203.80 L 358.20 199.80 L 358.00 197.50 L 358.20 195.20 L 358.80 193.10 L 360.90 189.40 L 364.20 186.70 L 366.10 185.80 L 370.50 185.00 L 374.90 185.80 L 376.80 186.70 L 380.10 189.40 L 382.20 193.10 L 383.00 197.50 Z" fill="url(#radialGradient2)" fill-rule="evenodd" group-id="4" id="椭圆形备份-9" node-id="104" stroke="none" target-height="25" target-width="25" target-x="358" target-y="185"></path><path d="M 539.00 206.50 L 538.70 208.80 L 537.80 210.80 L 536.50 212.50 L 534.80 213.80 L 532.80 214.70 L 530.50 215.00 L 528.20 214.70 L 526.20 213.80 L 524.50 212.50 L 523.20 210.80 L 522.30 208.80 L 522.00 206.50 L 522.30 204.20 L 523.20 202.20 L 524.50 200.50 L 526.20 199.20 L 528.20 198.30 L 530.50 198.00 L 532.80 198.30 L 534.80 199.20 L 536.50 200.50 L 537.80 202.20 L 538.70 204.20 L 539.00 206.50 Z" fill="url(#radialGradient3)" fill-rule="evenodd" group-id="4" id="椭圆形备份-10" node-id="105" stroke="none" target-height="17" target-width="17" target-x="522" target-y="198"></path><path d="M 560.00 125.50 L 559.30 129.20 L 558.60 130.80 L 556.30 133.50 L 553.20 135.30 L 549.50 136.00 L 545.80 135.30 L 542.70 133.50 L 540.40 130.80 L 539.20 127.40 L 539.20 123.60 L 539.70 121.80 L 541.50 118.70 L 544.20 116.40 L 545.80 115.70 L 549.50 115.00 L 553.20 115.70 L 554.80 116.40 L 557.50 118.70 L 559.30 121.80 L 560.00 125.50 Z" fill="url(#radialGradient4)" fill-rule="evenodd" group-id="4" id="椭圆形备份-11" node-id="106" stroke="none" target-height="21" target-width="20.799988" target-x="539.2" target-y="115"></path><path d="M 672.00 234.00 L 671.80 236.40 L 671.20 238.50 L 670.20 240.60 L 667.40 243.90 L 663.50 246.20 L 661.40 246.80 L 659.00 247.00 L 656.60 246.80 L 654.50 246.20 L 650.60 243.90 L 647.80 240.60 L 646.80 238.50 L 646.20 236.40 L 646.00 234.00 L 646.20 231.60 L 646.80 229.50 L 649.10 225.60 L 652.40 222.80 L 654.50 221.80 L 656.60 221.20 L 659.00 221.00 L 663.50 221.80 L 667.40 224.10 L 670.20 227.40 L 671.20 229.50 L 672.00 234.00 Z" fill="url(#radialGradient5)" fill-rule="evenodd" group-id="4" id="椭圆形备份-12" node-id="107" stroke="none" target-height="26" target-width="26" target-x="646" target-y="221"></path><path d="M 824.00 431.00 L 823.80 433.40 L 823.20 435.50 L 820.90 439.40 L 817.60 442.20 L 815.50 443.20 L 811.00 444.00 L 806.50 443.20 L 802.60 440.90 L 799.80 437.60 L 798.20 433.40 L 798.00 431.00 L 798.20 428.60 L 798.80 426.50 L 801.10 422.60 L 804.40 419.80 L 806.50 418.80 L 808.60 418.20 L 811.00 418.00 L 815.50 418.80 L 819.40 421.10 L 822.20 424.40 L 823.20 426.50 L 824.00 431.00 Z" fill="url(#radialGradient6)" fill-rule="evenodd" group-id="4" id="椭圆形备份-13" node-id="108" stroke="none" target-height="26" target-width="26" target-x="798" target-y="418"></path><path d="M 736.00 611.00 L 735.80 613.40 L 735.20 615.50 L 732.90 619.40 L 729.60 622.20 L 727.50 623.20 L 723.00 624.00 L 720.60 623.80 L 718.50 623.20 L 714.60 620.90 L 711.80 617.60 L 710.20 613.40 L 710.00 611.00 L 710.20 608.60 L 710.80 606.50 L 713.10 602.60 L 716.40 599.80 L 718.50 598.80 L 723.00 598.00 L 725.40 598.20 L 727.50 598.80 L 729.60 599.80 L 732.90 602.60 L 735.20 606.50 L 735.80 608.60 L 736.00 611.00 Z" fill="url(#radialGradient7)" fill-rule="evenodd" group-id="4" id="椭圆形备份-14" node-id="109" stroke="none" target-height="26" target-width="26" target-x="710" target-y="598"></path><path d="M 268.00 650.00 L 267.80 652.40 L 267.20 654.50 L 266.20 656.60 L 263.40 659.90 L 259.50 662.20 L 257.40 662.80 L 255.00 663.00 L 250.50 662.20 L 246.60 659.90 L 243.80 656.60 L 242.80 654.50 L 242.20 652.40 L 242.00 650.00 L 242.20 647.60 L 242.80 645.50 L 245.10 641.60 L 248.40 638.80 L 250.50 637.80 L 255.00 637.00 L 259.50 637.80 L 263.40 640.10 L 266.20 643.40 L 267.20 645.50 L 267.80 647.60 L 268.00 650.00 Z" fill="url(#radialGradient8)" fill-rule="evenodd" group-id="4" id="椭圆形备份-15" node-id="110" stroke="none" target-height="26" target-width="26" target-x="242" target-y="637"></path><path d="M 801.00 871.00 L 800.70 873.90 L 800.00 876.60 L 798.80 879.10 L 797.20 881.30 L 795.30 883.20 L 793.10 884.80 L 790.60 886.00 L 787.90 886.70 L 785.00 887.00 L 782.10 886.70 L 779.40 886.00 L 776.90 884.80 L 774.70 883.20 L 772.80 881.30 L 771.20 879.10 L 770.00 876.60 L 769.30 873.90 L 769.00 871.00 L 769.30 868.10 L 770.00 865.40 L 771.20 862.90 L 772.80 860.70 L 774.70 858.80 L 776.90 857.20 L 779.40 856.00 L 782.10 855.30 L 785.00 855.00 L 787.90 855.30 L 790.60 856.00 L 793.10 857.20 L 795.30 858.80 L 797.20 860.70 L 798.80 862.90 L 800.00 865.40 L 800.70 868.10 L 801.00 871.00 Z" fill="url(#radialGradient-18)" fill-rule="evenodd" group-id="4" id="椭圆形备份-16" node-id="111" stroke="none" target-height="32" target-width="32" target-x="769" target-y="855"></path></g></svg>