<?xml version="1.0" standalone="no"?><!DOCTYPE svg PUBLIC "-//W3C//DTD SVG 1.1//EN" "http://www.w3.org/Graphics/SVG/1.1/DTD/svg11.dtd"><svg height="1024" node-id="1" sillyvg="true" template-height="1024" template-width="1024" version="1.1" viewBox="0 0 1024 1024" width="1024" xmlns="http://www.w3.org/2000/svg" xmlns:xlink="http://www.w3.org/1999/xlink"><defs node-id="86"><linearGradient gradientUnits="objectBoundingBox" id="linearGradient-1" node-id="5" spreadMethod="pad" x1="0.43852565" x2="0.2583915" y1="-0.137964" y2="0.97287446"><stop offset="0" stop-color="#0589fa"></stop><stop offset="0.15719847" stop-color="#0064fd"></stop><stop offset="0.2938003" stop-color="#5a9dff"></stop><stop offset="0.5422727" stop-color="#0068e4"></stop><stop offset="0.59314907" stop-color="#006eef"></stop><stop offset="0.74668896" stop-color="#007dfe"></stop><stop offset="1" stop-color="#0a59dc"></stop></linearGradient><linearGradient gradientUnits="objectBoundingBox" id="linearGradient-2" node-id="13" spreadMethod="pad" x1="0.000000000000000021370923" x2="1" y1="0.45497262" y2="0.45497262"><stop offset="0" stop-color="#556bed"></stop><stop offset="0.35553563" stop-color="#2c82f4"></stop><stop offset="0.8170469" stop-color="#3e5ffb"></stop><stop offset="1" stop-color="#3d55ea" stop-opacity="0.9664281"></stop></linearGradient><linearGradient gradientUnits="objectBoundingBox" id="linearGradient-3" node-id="18" spreadMethod="pad" x1="0.2983894" x2="0.81292415" y1="0.19760361" y2="0.8906383"><stop offset="0" stop-color="#0ef1fd"></stop><stop offset="1" stop-color="#06defb" stop-opacity="0.10484047"></stop></linearGradient><linearGradient gradientUnits="objectBoundingBox" id="linearGradient-4" node-id="21" spreadMethod="pad" x1="0.5" x2="0.5" y1="0" y2="1"><stop offset="0" stop-color="#1f5fff" stop-opacity="0"></stop><stop offset="1" stop-color="#0d3aff" stop-opacity="0.3716401"></stop></linearGradient><linearGradient gradientUnits="objectBoundingBox" id="linearGradient-5" node-id="24" spreadMethod="pad" x1="0.5" x2="0.5" y1="0.25170276" y2="1"><stop offset="0" stop-color="#ffffff" stop-opacity="0"></stop><stop offset="1" stop-color="#92c5ff" stop-opacity="0.1981261"></stop></linearGradient><linearGradient gradientUnits="objectBoundingBox" id="linearGradient-7" node-id="29" spreadMethod="pad" x1="0.8415874" x2="-0.333798" y1="0.5" y2="0.5"><stop offset="0" stop-color="#3e65ff"></stop><stop offset="1" stop-color="#72f0ff"></stop></linearGradient><linearGradient gradientUnits="objectBoundingBox" id="linearGradient-8" node-id="32" spreadMethod="pad" x1="0.5" x2="0.5" y1="0.21499257" y2="1"><stop offset="0" stop-color="#ffffff" stop-opacity="0"></stop><stop offset="1" stop-color="#92c5ff" stop-opacity="0.1981261"></stop></linearGradient><linearGradient gradientUnits="objectBoundingBox" id="linearGradient-9" node-id="35" spreadMethod="pad" x1="-0.00000000000000004965646" x2="1" y1="0.4840523" y2="0.52468157"><stop offset="0" stop-color="#556bed"></stop><stop offset="0.22628002" stop-color="#2c82f4"></stop><stop offset="0.42540547" stop-color="#2b5ced"></stop><stop offset="0.60926175" stop-color="#6874ff"></stop><stop offset="0.7225545" stop-color="#3e5ffb"></stop><stop offset="0.80829084" stop-color="#3d55ea" stop-opacity="0.9664281"></stop><stop offset="0.9020706" stop-color="#4675ff"></stop><stop offset="1" stop-color="#9fe2fd"></stop></linearGradient><linearGradient gradientUnits="objectBoundingBox" id="linearGradient-10" node-id="44" spreadMethod="pad" x1="0.43983558" x2="0.5410774" y1="0.5656425" y2="0.46577743"><stop offset="0.00038243007" stop-color="#dcf2ff"></stop><stop offset="1" stop-color="#5cb3ff"></stop></linearGradient><radialGradient cx="0.5" cy="0.5" fx="0.5" fy="0.5" gradientUnits="objectBoundingBox" id="radialGradient-11" node-id="47" r="0.5" rev="11" spreadMethod="pad"><stop offset="0" stop-color="#00f6ff"></stop><stop offset="1" stop-color="#00fffe" stop-opacity="0"></stop></radialGradient><radialGradient cx="0.5" cy="0.5" fx="0.5" fy="0.5" gradientUnits="objectBoundingBox" id="radialGradient-12" node-id="50" r="0.43823937" rev="10" spreadMethod="pad"><stop offset="0" stop-color="#ffffff" stop-opacity="0.7709517"></stop><stop offset="1" stop-color="#ffffff" stop-opacity="0"></stop></radialGradient><radialGradient cx="0.5" cy="0.5" fx="0.5" fy="0.5" gradientUnits="objectBoundingBox" id="radialGradient1" node-id="180" r="0.364086" rev="9" spreadMethod="pad"><stop offset="0" stop-color="#ffffff"></stop><stop offset="1" stop-color="#006dff" stop-opacity="0"></stop></radialGradient><radialGradient cx="0.5" cy="0.5" fx="0.5" fy="0.5" gradientUnits="objectBoundingBox" id="radialGradient2" node-id="187" r="0.364086" rev="8" spreadMethod="pad"><stop offset="0" stop-color="#ffffff"></stop><stop offset="1" stop-color="#006dff" stop-opacity="0"></stop></radialGradient><radialGradient cx="0.5" cy="0.5" fx="0.5" fy="0.5" gradientUnits="objectBoundingBox" id="radialGradient3" node-id="194" r="0.364086" rev="7" spreadMethod="pad"><stop offset="0" stop-color="#ffffff"></stop><stop offset="1" stop-color="#006dff" stop-opacity="0"></stop></radialGradient><radialGradient cx="0.5" cy="0.5" fx="0.5" fy="0.5" gradientUnits="objectBoundingBox" id="radialGradient4" node-id="201" r="0.364086" rev="6" spreadMethod="pad"><stop offset="0" stop-color="#ffffff"></stop><stop offset="1" stop-color="#006dff" stop-opacity="0"></stop></radialGradient><radialGradient cx="0.5" cy="0.5" fx="0.5" fy="0.5" gradientUnits="objectBoundingBox" id="radialGradient5" node-id="208" r="0.364086" rev="5" spreadMethod="pad"><stop offset="0" stop-color="#ffffff"></stop><stop offset="1" stop-color="#006dff" stop-opacity="0"></stop></radialGradient><radialGradient cx="0.5" cy="0.5" fx="0.5" fy="0.5" gradientUnits="objectBoundingBox" id="radialGradient6" node-id="215" r="0.364086" rev="4" spreadMethod="pad"><stop offset="0" stop-color="#ffffff"></stop><stop offset="1" stop-color="#006dff" stop-opacity="0"></stop></radialGradient><radialGradient cx="0.5" cy="0.5" fx="0.5" fy="0.5" gradientUnits="objectBoundingBox" id="radialGradient7" node-id="222" r="0.364086" rev="3" spreadMethod="pad"><stop offset="0" stop-color="#ffffff"></stop><stop offset="1" stop-color="#006dff" stop-opacity="0"></stop></radialGradient><radialGradient cx="0.5" cy="0.5" fx="0.5" fy="0.5" gradientUnits="objectBoundingBox" id="radialGradient8" node-id="229" r="0.364086" rev="2" spreadMethod="pad"><stop offset="0" stop-color="#ffffff"></stop><stop offset="1" stop-color="#006dff" stop-opacity="0"></stop></radialGradient><radialGradient cx="0.5" cy="0.5" fx="0.5" fy="0.5" gradientUnits="objectBoundingBox" id="radialGradient-13" node-id="53" r="0.364086" rev="1" spreadMethod="pad"><stop offset="0" stop-color="#ffffff"></stop><stop offset="1" stop-color="#006dff" stop-opacity="0"></stop></radialGradient><filter filterUnits="objectBoundingBox" height="778.5" id="filter-6" node-id="27" width="95" x="347.75076" y="57.834858"><feGaussianBlur color-interpolation-filters="linearRGB" in="SourceGraphic" result="result1" stdDeviation="0 0"></feGaussianBlur></filter></defs><path d="M 0.00 0.00 L 1024.00 0.00 L 1024.00 1024.00 L 0.00 1024.00 Z" fill="#080d23" fill-opacity="0" fill-rule="nonzero" node-id="248" stroke="none" target-height="1024" target-width="1024" target-x="0" target-y="0"></path><g node-id="250"><path d="M 569.00 224.60 L 638.80 238.50 L 614.90 261.50 L 648.00 292.00 L 650.80 295.00 L 653.00 298.20 L 654.70 301.70 L 656.00 305.40 L 656.70 309.20 L 657.00 313.10 L 656.80 317.10 L 656.00 321.00 L 654.80 324.90 L 653.00 328.70 L 650.80 332.20 L 648.00 335.70 L 600.10 387.20 L 619.80 426.90 L 620.70 427.20 L 621.50 426.30 L 685.30 439.50 L 639.80 479.50 L 637.80 477.60 L 637.80 546.30 L 637.50 550.50 L 636.70 554.60 L 635.40 558.50 L 633.60 562.20 L 631.40 565.60 L 628.80 568.80 L 625.80 571.60 L 622.60 574.10 L 619.00 576.10 L 615.20 577.80 L 611.20 578.90 L 607.00 579.50 L 578.20 581.70 L 575.80 600.00 L 483.30 583.00 L 491.60 578.40 L 489.20 575.70 L 487.20 572.70 L 485.60 569.40 L 484.40 565.80 L 483.60 562.10 L 483.30 558.00 L 483.30 465.30 L 483.80 459.70 L 452.50 470.70 L 452.50 560.40 L 452.20 564.60 L 451.40 568.70 L 450.10 572.60 L 448.30 576.30 L 446.10 579.70 L 443.40 582.90 L 440.50 585.70 L 437.20 588.20 L 433.60 590.20 L 429.90 591.90 L 425.90 593.00 L 421.60 593.60 L 393.80 595.70 L 392.50 614.50 L 317.70 599.40 L 314.70 598.30 L 309.20 595.00 L 306.70 592.90 L 302.70 588.10 L 299.80 582.30 L 298.80 579.10 L 298.00 572.10 L 298.00 479.40 L 298.30 475.10 L 299.10 471.10 L 300.40 467.20 L 302.20 463.50 L 304.40 460.00 L 307.10 456.90 L 310.00 454.00 L 313.30 451.60 L 316.90 449.50 L 320.70 447.90 L 324.60 446.80 L 328.90 446.20 L 424.70 439.00 L 430.50 439.80 L 486.80 450.90 L 488.70 447.60 L 490.90 444.50 L 493.50 441.70 L 496.40 439.10 L 499.50 436.90 L 502.90 435.10 L 506.50 433.60 L 510.20 432.60 L 514.20 432.10 L 598.70 425.60 L 551.90 416.30 L 546.30 414.50 L 541.20 411.50 L 473.20 348.90 L 470.50 346.00 L 468.30 342.90 L 466.50 339.40 L 465.20 335.70 L 464.40 331.80 L 464.20 327.70 L 464.40 323.60 L 465.20 319.70 L 466.50 315.80 L 468.30 312.00 L 470.50 308.50 L 473.20 305.30 L 538.80 234.70 L 541.70 231.90 L 544.70 229.60 L 547.90 227.70 L 551.30 226.10 L 554.80 225.00 L 558.30 224.30 L 561.90 224.00 L 565.50 224.10 L 569.00 224.60 Z M 427.90 254.00 L 428.30 253.80 L 502.00 268.80 L 452.50 285.20 L 452.50 375.10 L 452.20 379.30 L 451.40 383.40 L 450.10 387.30 L 448.30 391.00 L 446.10 394.40 L 443.40 397.60 L 440.50 400.40 L 437.20 402.90 L 433.60 404.90 L 429.90 406.50 L 425.90 407.70 L 421.60 408.30 L 394.60 410.30 L 394.00 429.50 L 318.20 414.20 L 315.10 413.10 L 309.50 409.90 L 307.00 407.90 L 302.80 403.00 L 299.80 397.10 L 298.80 393.90 L 298.00 386.80 L 298.00 294.10 L 298.30 289.80 L 299.10 285.80 L 300.40 281.90 L 302.20 278.20 L 304.40 274.70 L 307.10 271.60 L 310.00 268.70 L 313.30 266.30 L 316.90 264.20 L 320.70 262.60 L 324.60 261.50 L 328.90 260.80 L 421.60 253.80 L 427.90 254.00 Z" fill="url(#linearGradient-1)" fill-rule="nonzero" group-id="1" id="形状结合" node-id="59" stroke="none" target-height="390.5" target-width="387.3" target-x="298" target-y="224"></path><g node-id="253"><path d="M 398.90 274.80 L 394.60 275.50 L 390.70 276.60 L 386.90 278.20 L 383.30 280.30 L 380.00 282.70 L 377.10 285.60 L 374.40 288.70 L 372.20 292.20 L 370.40 295.90 L 369.10 299.80 L 368.30 303.80 L 368.00 308.10 L 368.00 400.80 L 368.30 405.10 L 369.10 409.00 L 370.40 412.60 L 372.30 416.10 L 374.50 419.20 L 377.10 421.90 L 380.00 424.30 L 383.30 426.30 L 386.90 427.80 L 390.60 428.80 L 394.60 429.40 L 398.90 429.30 L 491.60 422.30 L 495.90 421.70 L 499.90 420.50 L 503.60 418.90 L 507.20 416.90 L 510.50 414.40 L 513.40 411.60 L 516.10 408.40 L 518.30 405.00 L 520.10 401.30 L 521.40 397.40 L 522.20 393.30 L 522.50 389.10 L 522.50 296.30 L 522.20 292.00 L 521.40 288.10 L 520.00 284.50 L 518.20 281.00 L 516.00 277.90 L 513.40 275.20 L 510.50 272.80 L 507.20 270.80 L 503.60 269.30 L 499.80 268.30 L 495.90 267.80 L 491.60 267.80 L 398.90 274.80 Z M 652.50 245.50 L 649.30 243.00 L 645.90 241.00 L 642.30 239.50 L 638.50 238.50 L 634.60 238.10 L 630.60 238.10 L 626.70 238.60 L 622.80 239.60 L 619.00 241.20 L 615.40 243.20 L 612.00 245.70 L 608.80 248.70 L 543.20 319.30 L 540.50 322.50 L 538.30 326.00 L 536.50 329.80 L 535.20 333.70 L 534.40 337.60 L 534.20 341.70 L 534.40 345.80 L 535.20 349.70 L 536.50 353.40 L 538.30 356.90 L 540.50 360.00 L 543.20 362.90 L 608.80 423.60 L 612.00 426.10 L 615.40 428.10 L 619.00 429.50 L 622.80 430.50 L 626.70 431.00 L 630.60 430.90 L 634.50 430.40 L 638.40 429.30 L 642.20 427.80 L 645.80 425.80 L 649.20 423.30 L 652.40 420.20 L 718.00 349.70 L 720.80 346.20 L 723.00 342.70 L 724.80 338.90 L 726.00 335.00 L 726.80 331.10 L 727.00 327.10 L 726.70 323.20 L 726.00 319.40 L 724.70 315.70 L 723.00 312.20 L 720.80 309.00 L 718.00 306.00 L 652.50 245.50 Z M 398.90 460.20 L 394.60 460.80 L 390.70 461.90 L 386.90 463.50 L 383.30 465.60 L 380.00 468.00 L 377.10 470.90 L 374.40 474.00 L 372.20 477.50 L 370.40 481.20 L 369.10 485.10 L 368.30 489.10 L 368.00 493.40 L 368.00 586.10 L 368.30 590.40 L 369.10 594.30 L 370.40 598.00 L 372.30 601.40 L 374.50 604.50 L 377.10 607.30 L 380.00 609.60 L 383.30 611.60 L 386.90 613.10 L 390.60 614.20 L 394.60 614.70 L 398.90 614.70 L 491.60 607.60 L 495.90 607.00 L 499.90 605.90 L 503.60 604.20 L 507.20 602.20 L 510.50 599.70 L 513.40 596.90 L 516.10 593.70 L 518.30 590.30 L 520.10 586.60 L 521.40 582.70 L 522.20 578.60 L 522.50 574.40 L 522.50 481.60 L 522.20 477.40 L 521.40 473.40 L 520.00 469.80 L 518.20 466.30 L 516.00 463.30 L 513.40 460.50 L 510.50 458.10 L 507.20 456.20 L 503.60 454.60 L 499.80 453.60 L 495.90 453.10 L 491.60 453.10 L 398.90 460.20 Z M 584.20 446.10 L 580.00 446.70 L 576.00 447.80 L 572.20 449.40 L 568.60 451.50 L 565.40 453.90 L 562.40 456.80 L 559.80 460.00 L 557.60 463.40 L 555.80 467.10 L 554.40 471.00 L 553.60 475.00 L 553.30 479.30 L 553.30 572.00 L 553.60 576.30 L 554.50 580.20 L 555.80 583.90 L 557.60 587.30 L 559.80 590.40 L 562.40 593.20 L 565.30 595.50 L 568.60 597.50 L 572.20 599.00 L 575.90 600.10 L 579.90 600.60 L 584.20 600.60 L 677.00 593.50 L 681.20 592.90 L 685.20 591.80 L 689.00 590.10 L 692.60 588.10 L 695.80 585.60 L 698.80 582.80 L 701.40 579.60 L 703.60 576.20 L 705.40 572.50 L 706.70 568.60 L 707.50 564.50 L 707.80 560.30 L 707.80 467.50 L 707.50 463.30 L 706.70 459.30 L 705.40 455.70 L 703.60 452.30 L 701.40 449.20 L 698.80 446.40 L 695.80 444.00 L 692.50 442.10 L 689.00 440.50 L 685.20 439.50 L 681.20 439.00 L 677.00 439.00 L 584.20 446.10 Z" fill="url(#linearGradient-2)" fill-rule="nonzero" group-id="1,4" id="形状" node-id="61" stroke="url(#linearGradient-3)" stroke-linecap="butt" stroke-width="3" target-height="376.6" target-width="359" target-x="368" target-y="238.1"></path></g></g><g node-id="251"><path d="M 139.60 408.40 L 884.60 408.40 L 779.70 733.60 L 244.50 733.60 Z" fill="url(#linearGradient-4)" fill-rule="evenodd" group-id="2" id="矩形" node-id="63" stroke="none" target-height="325.19998" target-width="745" target-x="139.6" target-y="408.4"></path><path d="M 512.60 606.80 L 564.10 607.40 L 588.50 608.10 L 636.10 610.30 L 680.20 613.40 L 719.60 617.30 L 738.60 619.60 L 770.90 624.60 L 786.10 627.60 L 799.00 630.50 L 809.90 633.40 L 818.30 636.10 L 825.10 638.60 L 830.60 641.10 L 834.80 643.40 L 838.40 645.90 L 840.80 648.20 L 842.40 650.30 L 843.30 652.30 L 843.60 654.30 L 843.30 656.30 L 842.40 658.40 L 840.80 660.50 L 838.40 662.80 L 834.80 665.20 L 830.60 667.60 L 825.10 670.00 L 818.30 672.60 L 809.90 675.20 L 799.00 678.10 L 786.10 681.10 L 770.90 684.00 L 755.60 686.60 L 738.60 689.00 L 700.60 693.40 L 658.20 697.00 L 612.90 699.60 L 588.50 700.60 L 538.80 701.70 L 486.40 701.70 L 461.10 701.30 L 412.30 699.60 L 367.00 697.00 L 345.00 695.30 L 305.60 691.40 L 286.60 689.00 L 254.30 684.00 L 239.10 681.10 L 226.10 678.10 L 215.20 675.20 L 206.90 672.60 L 200.10 670.00 L 194.60 667.60 L 190.30 665.20 L 186.80 662.80 L 184.40 660.50 L 182.80 658.40 L 181.90 656.30 L 181.60 654.30 L 181.90 652.30 L 182.80 650.30 L 184.40 648.20 L 186.80 645.90 L 190.30 643.40 L 194.60 641.10 L 200.10 638.60 L 206.90 636.10 L 215.20 633.40 L 226.10 630.50 L 239.10 627.60 L 254.30 624.60 L 269.60 622.10 L 286.60 619.60 L 324.50 615.20 L 345.00 613.40 L 389.00 610.30 L 436.70 608.10 L 461.10 607.40 L 512.60 606.80 Z M 512.60 612.80 L 479.40 613.10 L 447.40 613.80 L 415.70 614.90 L 385.70 616.50 L 356.40 618.50 L 329.20 620.80 L 302.90 623.60 L 279.40 626.70 L 264.40 629.00 L 239.30 633.60 L 227.60 636.30 L 209.50 641.50 L 201.60 644.50 L 195.80 647.20 L 191.80 649.70 L 189.50 651.50 L 188.20 652.90 L 187.60 654.30 L 188.20 655.70 L 189.50 657.20 L 191.80 659.00 L 195.80 661.40 L 201.60 664.10 L 209.50 667.10 L 227.60 672.30 L 239.30 675.00 L 264.40 679.70 L 279.40 682.00 L 302.90 685.10 L 329.20 687.90 L 356.40 690.20 L 385.70 692.20 L 415.70 693.80 L 447.40 694.90 L 479.40 695.60 L 512.60 695.80 L 545.70 695.60 L 577.80 694.90 L 609.50 693.80 L 639.40 692.20 L 668.80 690.20 L 695.90 687.90 L 722.20 685.10 L 745.80 682.00 L 760.70 679.70 L 785.80 675.00 L 797.60 672.30 L 815.60 667.10 L 823.60 664.10 L 829.40 661.40 L 833.40 659.00 L 835.70 657.20 L 837.00 655.70 L 837.60 654.30 L 837.00 652.90 L 835.70 651.50 L 833.40 649.70 L 829.40 647.20 L 823.60 644.50 L 815.60 641.50 L 797.60 636.30 L 785.80 633.60 L 760.70 629.00 L 745.80 626.70 L 722.20 623.60 L 695.90 620.80 L 668.80 618.50 L 639.40 616.50 L 609.50 614.90 L 577.80 613.80 L 545.70 613.10 L 512.60 612.80 Z" fill="url(#linearGradient-5)" fill-rule="nonzero" group-id="2" id="椭圆形备份-3" node-id="64" stroke="none" target-height="94.900024" target-width="662" target-x="181.6" target-y="606.8"></path><g node-id="254"><path d="M 125.20 854.80 L 319.30 799.00 L 705.40 799.00 L 901.20 854.80 L 511.50 903.00 Z" fill="#001d69" fill-opacity="0.3005354" fill-rule="evenodd" group-id="2,5" id="多边形备份" node-id="65" stroke="none" target-height="104" target-width="776" target-x="125.2" target-y="799"></path></g><g node-id="255"><path d="M 122.50 855.80 L 317.80 808.00 L 704.90 808.00 L 901.00 855.80 L 511.50 903.00 Z" fill="#001d69" fill-opacity="0.3005354" fill-rule="evenodd" filter="url(#filter-6)" group-id="2,6" id="多边形备份-4" node-id="66" stroke="none" target-height="95" target-width="778.5" target-x="122.5" target-y="808"></path></g><g node-id="256"><path d="M 121.10 849.90 L 317.80 802.00 L 704.90 802.00 L 902.40 849.90 L 903.90 850.50 L 906.00 852.30 L 906.80 854.20 L 907.00 856.10 L 906.60 858.10 L 905.50 859.80 L 903.30 861.30 L 901.70 861.70 L 510.80 909.00 L 121.80 861.70 L 120.20 861.30 L 118.00 859.70 L 116.90 858.00 L 116.50 856.10 L 116.70 854.10 L 117.50 852.30 L 119.60 850.50 L 121.10 849.90 Z M 122.50 855.80 L 511.50 903.00 L 901.00 855.80 L 704.90 808.00 L 317.80 808.00 L 122.50 855.80 Z" fill="url(#linearGradient-7)" fill-rule="nonzero" group-id="2,7" id="多边形备份-4" node-id="67" stroke="none" target-height="107" target-width="790.5" target-x="116.5" target-y="802"></path></g><g node-id="257"><path d="M 122.50 855.50 L 315.20 808.00 L 705.00 808.00 L 901.00 855.50 L 512.00 903.00 Z" fill="#001d69" fill-opacity="0.3005354" fill-rule="evenodd" group-id="2,8" id="多边形备份-3" node-id="68" stroke="none" target-height="95" target-width="778.5" target-x="122.5" target-y="808"></path></g><path d="M 512.10 565.30 L 553.10 565.60 L 592.00 566.40 L 630.10 567.70 L 665.30 569.50 L 699.50 571.80 L 730.10 574.40 L 750.00 576.40 L 784.00 580.80 L 800.10 583.30 L 813.70 585.90 L 825.20 588.40 L 841.20 592.90 L 851.40 597.10 L 855.20 599.30 L 857.80 601.30 L 859.40 603.10 L 860.30 604.90 L 860.60 606.50 L 860.30 608.20 L 859.40 609.90 L 857.80 611.80 L 855.20 613.80 L 851.40 616.00 L 841.20 620.10 L 825.20 624.70 L 813.70 627.20 L 800.10 629.80 L 784.00 632.30 L 750.00 636.70 L 730.10 638.70 L 699.50 641.30 L 665.30 643.60 L 630.10 645.30 L 592.00 646.70 L 553.10 647.50 L 512.10 647.80 L 471.10 647.50 L 432.20 646.70 L 394.10 645.30 L 358.80 643.60 L 324.70 641.30 L 294.10 638.70 L 274.20 636.70 L 240.10 632.30 L 224.10 629.80 L 210.50 627.20 L 199.00 624.70 L 183.00 620.10 L 172.80 616.00 L 169.00 613.80 L 166.40 611.80 L 164.80 609.90 L 163.90 608.20 L 163.60 606.50 L 163.90 604.90 L 164.80 603.10 L 166.40 601.30 L 169.00 599.30 L 172.80 597.10 L 183.00 592.90 L 199.00 588.40 L 210.50 585.90 L 224.10 583.30 L 256.20 578.50 L 294.10 574.40 L 324.70 571.80 L 358.80 569.50 L 394.10 567.70 L 432.20 566.40 L 471.10 565.60 L 512.10 565.30 Z M 512.10 571.30 L 477.10 571.50 L 443.40 572.10 L 410.00 573.10 L 378.40 574.50 L 347.50 576.20 L 318.90 578.20 L 291.20 580.70 L 266.40 583.30 L 243.40 586.30 L 224.10 589.40 L 211.70 591.70 L 192.60 596.30 L 184.10 598.90 L 177.90 601.30 L 173.70 603.40 L 171.20 605.00 L 169.70 606.50 L 171.20 608.00 L 173.70 609.60 L 177.90 611.80 L 184.10 614.20 L 192.60 616.80 L 201.30 619.00 L 224.10 623.70 L 243.40 626.70 L 266.40 629.70 L 291.20 632.40 L 318.90 634.80 L 347.50 636.90 L 378.40 638.60 L 410.00 640.00 L 443.40 640.90 L 477.10 641.50 L 512.10 641.80 L 547.00 641.50 L 580.80 640.90 L 614.10 640.00 L 645.70 638.60 L 676.70 636.90 L 705.30 634.80 L 733.00 632.40 L 757.80 629.70 L 780.80 626.70 L 800.10 623.70 L 812.50 621.30 L 831.60 616.80 L 840.10 614.20 L 846.20 611.80 L 850.50 609.60 L 852.90 608.00 L 854.50 606.50 L 852.90 605.00 L 850.50 603.40 L 846.20 601.30 L 840.10 598.90 L 831.60 596.30 L 812.50 591.70 L 800.10 589.40 L 780.80 586.30 L 757.80 583.30 L 733.00 580.70 L 705.30 578.20 L 676.70 576.20 L 645.70 574.50 L 614.10 573.10 L 580.80 572.10 L 547.00 571.50 L 512.10 571.30 Z" fill="url(#linearGradient-8)" fill-rule="nonzero" group-id="2" id="椭圆形备份-4" node-id="69" stroke="none" target-height="82.5" target-width="697" target-x="163.6" target-y="565.3"></path><path d="M 198.00 734.00 L 826.00 736.80 L 826.00 838.60 L 827.00 838.80 L 511.50 873.80 L 199.80 839.00 L 198.00 839.00 L 198.00 734.00 Z" fill="url(#linearGradient-9)" fill-rule="evenodd" group-id="2" id="形状结合" node-id="70" stroke="none" target-height="139.79999" target-width="629" target-x="198" target-y="734"></path><g node-id="258"><path d="M 204.00 737.00 L 512.00 706.30 L 819.00 736.50 L 512.20 771.80 Z" fill="#2a64f6" fill-rule="evenodd" group-id="2,9" id="矩形" node-id="71" stroke="none" target-height="65.5" target-width="615" target-x="204" target-y="706.3"></path></g><g node-id="259"><path d="M 203.30 730.00 L 512.70 699.30 L 819.70 729.50 L 821.70 730.00 L 823.20 730.80 L 824.40 731.90 L 825.30 733.30 L 826.00 736.40 L 825.30 739.60 L 824.50 741.00 L 823.30 742.10 L 821.80 743.00 L 819.80 743.50 L 511.50 778.70 L 203.20 744.00 L 201.20 743.50 L 199.70 742.60 L 198.50 741.50 L 197.70 740.10 L 197.00 737.00 L 197.70 733.80 L 198.60 732.40 L 199.80 731.30 L 201.30 730.50 L 203.30 730.00 Z M 204.00 737.00 L 512.20 771.70 L 819.00 736.50 L 512.00 706.20 L 204.00 737.00 Z" fill="url(#linearGradient-10)" fill-rule="nonzero" group-id="2,10" id="矩形" node-id="72" stroke="none" target-height="79.400024" target-width="629" target-x="197" target-y="699.3"></path></g><path d="M 511.00 774.00 L 568.40 773.30 L 623.90 771.10 L 675.70 767.80 L 700.00 765.60 L 722.00 763.30 L 743.10 760.70 L 761.10 758.00 L 772.80 755.90 L 791.30 751.80 L 799.70 749.40 L 806.00 747.10 L 810.60 745.00 L 813.50 743.30 L 815.40 741.80 L 816.60 740.40 L 817.30 739.00 L 817.50 737.80 L 817.30 736.50 L 816.60 735.10 L 815.40 733.70 L 813.50 732.20 L 810.60 730.50 L 806.00 728.40 L 799.60 726.10 L 791.20 723.80 L 772.70 719.70 L 742.90 715.00 L 721.80 712.30 L 699.80 710.10 L 650.30 706.20 L 596.30 703.50 L 539.40 702.00 L 481.60 702.00 L 425.10 703.50 L 371.60 706.20 L 322.70 710.10 L 301.00 712.30 L 280.20 715.00 L 262.40 717.70 L 241.10 721.70 L 224.50 726.10 L 218.30 728.40 L 213.70 730.50 L 210.90 732.20 L 209.10 733.70 L 207.20 736.50 L 207.00 737.80 L 207.90 740.40 L 211.00 743.30 L 213.70 745.00 L 218.30 747.10 L 224.60 749.40 L 232.80 751.80 L 251.00 755.90 L 262.60 758.00 L 280.40 760.70 L 301.20 763.30 L 323.00 765.60 L 347.10 767.80 L 398.50 771.10 L 453.70 773.30 L 511.00 774.00 Z" fill="url(#radialGradient-11)" fill-rule="evenodd" group-id="2" id="椭圆形备份-19" node-id="73" stroke="none" target-height="72" target-width="610.5" target-x="207" target-y="702"></path><path d="M 644.60 736.90 L 644.30 738.00 L 643.50 739.20 L 641.80 740.50 L 638.90 741.90 L 634.40 743.60 L 627.60 745.40 L 618.10 747.30 L 605.50 749.20 L 592.60 750.70 L 562.40 753.00 L 528.80 754.20 L 511.10 754.30 L 493.40 754.20 L 459.80 753.00 L 429.60 750.70 L 416.70 749.20 L 404.00 747.30 L 394.60 745.40 L 387.70 743.60 L 383.20 741.90 L 380.40 740.50 L 378.70 739.20 L 377.90 738.00 L 377.60 736.90 L 377.90 735.80 L 378.70 734.70 L 380.40 733.40 L 383.20 731.90 L 387.70 730.30 L 394.60 728.40 L 404.00 726.50 L 416.70 724.60 L 429.60 723.10 L 459.80 720.80 L 493.40 719.70 L 511.10 719.50 L 528.80 719.70 L 562.40 720.80 L 592.60 723.10 L 605.50 724.60 L 618.10 726.50 L 627.60 728.40 L 634.40 730.30 L 638.90 731.90 L 641.80 733.40 L 643.50 734.70 L 644.30 735.80 L 644.60 736.90 Z" fill="url(#radialGradient-12)" fill-rule="evenodd" group-id="2" id="椭圆形备份-20" node-id="74" stroke="none" target-height="34.799988" target-width="266.99997" target-x="377.6" target-y="719.5"></path></g><g node-id="252"><path d="M 238.00 373.50 L 237.70 376.50 L 237.00 379.30 L 235.70 381.80 L 234.10 384.10 L 232.10 386.10 L 229.80 387.70 L 227.30 389.00 L 224.50 389.70 L 221.50 390.00 L 218.50 389.70 L 215.70 389.00 L 213.20 387.70 L 210.90 386.10 L 208.90 384.10 L 207.30 381.80 L 206.00 379.30 L 205.30 376.50 L 205.00 373.50 L 205.30 370.50 L 206.00 367.70 L 207.30 365.20 L 208.90 362.90 L 210.90 360.90 L 213.20 359.30 L 215.70 358.00 L 218.50 357.30 L 221.50 357.00 L 224.50 357.30 L 227.30 358.00 L 229.80 359.30 L 232.10 360.90 L 234.10 362.90 L 235.70 365.20 L 237.00 367.70 L 237.70 370.50 L 238.00 373.50 Z" fill="url(#radialGradient1)" fill-rule="evenodd" group-id="3" id="椭圆形" node-id="76" stroke="none" target-height="33" target-width="33" target-x="205" target-y="357"></path><path d="M 379.00 185.50 L 378.20 189.90 L 376.10 193.60 L 372.80 196.30 L 370.90 197.20 L 366.50 198.00 L 362.10 197.20 L 358.40 195.10 L 355.70 191.80 L 354.20 187.80 L 354.00 185.50 L 354.20 183.20 L 354.80 181.10 L 356.90 177.40 L 360.20 174.70 L 362.10 173.80 L 366.50 173.00 L 370.90 173.80 L 374.60 175.90 L 377.30 179.20 L 378.20 181.10 L 379.00 185.50 Z" fill="url(#radialGradient2)" fill-rule="evenodd" group-id="3" id="椭圆形备份-9" node-id="77" stroke="none" target-height="25" target-width="25" target-x="354" target-y="173"></path><path d="M 535.00 194.50 L 534.70 196.80 L 533.80 198.80 L 532.50 200.50 L 530.80 201.80 L 528.80 202.70 L 526.50 203.00 L 524.20 202.70 L 522.20 201.80 L 520.50 200.50 L 519.20 198.80 L 518.30 196.80 L 518.00 194.50 L 518.30 192.20 L 519.20 190.20 L 520.50 188.50 L 522.20 187.20 L 524.20 186.30 L 526.50 186.00 L 528.80 186.30 L 530.80 187.20 L 532.50 188.50 L 533.80 190.20 L 534.70 192.20 L 535.00 194.50 Z" fill="url(#radialGradient3)" fill-rule="evenodd" group-id="3" id="椭圆形备份-10" node-id="78" stroke="none" target-height="17" target-width="17" target-x="518" target-y="186"></path><path d="M 556.00 113.50 L 555.30 117.20 L 553.50 120.30 L 550.80 122.60 L 549.20 123.30 L 545.50 124.00 L 541.80 123.30 L 538.70 121.50 L 536.40 118.80 L 535.20 115.40 L 535.20 111.60 L 535.70 109.80 L 537.50 106.70 L 540.20 104.40 L 541.80 103.70 L 545.50 103.00 L 549.20 103.70 L 552.30 105.50 L 554.60 108.20 L 555.30 109.80 L 556.00 113.50 Z" fill="url(#radialGradient4)" fill-rule="evenodd" group-id="3" id="椭圆形备份-11" node-id="79" stroke="none" target-height="21" target-width="20.799988" target-x="535.2" target-y="103"></path><path d="M 700.00 216.00 L 699.20 220.50 L 696.90 224.40 L 693.60 227.20 L 691.50 228.20 L 689.40 228.80 L 687.00 229.00 L 684.60 228.80 L 682.50 228.20 L 678.60 225.90 L 675.80 222.60 L 674.20 218.40 L 674.00 216.00 L 674.20 213.60 L 674.80 211.50 L 677.10 207.60 L 680.40 204.80 L 682.50 203.80 L 684.60 203.20 L 687.00 203.00 L 689.40 203.20 L 691.50 203.80 L 695.40 206.10 L 698.20 209.40 L 699.20 211.50 L 700.00 216.00 Z" fill="url(#radialGradient5)" fill-rule="evenodd" group-id="3" id="椭圆形备份-12" node-id="80" stroke="none" target-height="26" target-width="26" target-x="674" target-y="203"></path><path d="M 820.00 419.00 L 819.20 423.50 L 818.20 425.60 L 815.40 428.90 L 811.50 431.20 L 807.00 432.00 L 802.50 431.20 L 798.60 428.90 L 795.80 425.60 L 794.20 421.40 L 794.00 419.00 L 794.20 416.60 L 794.80 414.50 L 797.10 410.60 L 800.40 407.80 L 802.50 406.80 L 807.00 406.00 L 809.40 406.20 L 811.50 406.80 L 815.40 409.10 L 818.20 412.40 L 819.20 414.50 L 820.00 419.00 Z" fill="url(#radialGradient6)" fill-rule="evenodd" group-id="3" id="椭圆形备份-13" node-id="81" stroke="none" target-height="26" target-width="26" target-x="794" target-y="406"></path><path d="M 732.00 599.00 L 731.80 601.40 L 731.20 603.50 L 728.90 607.40 L 725.60 610.20 L 723.50 611.20 L 721.40 611.80 L 719.00 612.00 L 714.50 611.20 L 710.60 608.90 L 707.80 605.60 L 706.80 603.50 L 706.20 601.40 L 706.00 599.00 L 706.20 596.60 L 706.80 594.50 L 709.10 590.60 L 712.40 587.80 L 714.50 586.80 L 719.00 586.00 L 721.40 586.20 L 723.50 586.80 L 727.40 589.10 L 730.20 592.40 L 731.20 594.50 L 731.80 596.60 L 732.00 599.00 Z" fill="url(#radialGradient7)" fill-rule="evenodd" group-id="3" id="椭圆形备份-14" node-id="82" stroke="none" target-height="26" target-width="26" target-x="706" target-y="586"></path><path d="M 284.00 597.00 L 283.80 599.40 L 283.20 601.50 L 280.90 605.40 L 277.60 608.20 L 275.50 609.20 L 273.40 609.80 L 271.00 610.00 L 268.60 609.80 L 266.50 609.20 L 262.60 606.90 L 259.80 603.60 L 258.80 601.50 L 258.20 599.40 L 258.00 597.00 L 258.20 594.60 L 258.80 592.50 L 261.10 588.60 L 264.40 585.80 L 266.50 584.80 L 271.00 584.00 L 273.40 584.20 L 275.50 584.80 L 279.40 587.10 L 282.20 590.40 L 283.20 592.50 L 283.80 594.60 L 284.00 597.00 Z" fill="url(#radialGradient8)" fill-rule="evenodd" group-id="3" id="椭圆形备份-15" node-id="83" stroke="none" target-height="26" target-width="26" target-x="258" target-y="584"></path><path d="M 793.00 858.00 L 792.70 860.90 L 792.00 863.60 L 790.80 866.10 L 789.20 868.30 L 787.30 870.20 L 785.10 871.80 L 782.60 873.00 L 779.90 873.70 L 777.00 874.00 L 774.10 873.70 L 771.40 873.00 L 768.90 871.80 L 766.70 870.20 L 764.80 868.30 L 763.20 866.10 L 762.00 863.60 L 761.30 860.90 L 761.00 858.00 L 761.30 855.10 L 762.00 852.40 L 763.20 849.90 L 764.80 847.70 L 766.70 845.80 L 768.90 844.20 L 771.40 843.00 L 774.10 842.30 L 777.00 842.00 L 779.90 842.30 L 782.60 843.00 L 785.10 844.20 L 787.30 845.80 L 789.20 847.70 L 790.80 849.90 L 792.00 852.40 L 792.70 855.10 L 793.00 858.00 Z" fill="url(#radialGradient-13)" fill-rule="evenodd" group-id="3" id="椭圆形备份-16" node-id="84" stroke="none" target-height="32" target-width="32" target-x="761" target-y="842"></path></g></svg>