<?xml version="1.0" standalone="no"?><!DOCTYPE svg PUBLIC "-//W3C//DTD SVG 1.1//EN" "http://www.w3.org/Graphics/SVG/1.1/DTD/svg11.dtd"><svg height="1024" node-id="1" sillyvg="true" template-height="1024" template-width="1024" version="1.1" viewBox="0 0 1024 1024" width="1024" xmlns="http://www.w3.org/2000/svg" xmlns:xlink="http://www.w3.org/1999/xlink"><defs node-id="85"><linearGradient gradientUnits="objectBoundingBox" id="linearGradient-1" node-id="5" spreadMethod="pad" x1="0.59757274" x2="0.2542505" y1="0.14503102" y2="0.8037565"><stop offset="0" stop-color="#0589fa"></stop><stop offset="0.23353116" stop-color="#0064fd"></stop><stop offset="0.49161884" stop-color="#4791ff"></stop><stop offset="0.71835494" stop-color="#64abff"></stop><stop offset="0.86282945" stop-color="#007dfe"></stop><stop offset="1" stop-color="#0a59dc"></stop></linearGradient><linearGradient gradientUnits="objectBoundingBox" id="linearGradient-2" node-id="12" spreadMethod="pad" x1="0.000000000000000021370923" x2="1" y1="0.45497262" y2="0.45497262"><stop offset="0" stop-color="#556bed"></stop><stop offset="0.35553563" stop-color="#2c82f4"></stop><stop offset="0.8170469" stop-color="#3e5ffb"></stop><stop offset="1" stop-color="#3d55ea" stop-opacity="0.9664281"></stop></linearGradient><linearGradient gradientUnits="objectBoundingBox" id="linearGradient-3" node-id="17" spreadMethod="pad" x1="0.27798066" x2="0.84460104" y1="0.30079648" y2="0.75733286"><stop offset="0" stop-color="#0ef1fd"></stop><stop offset="1" stop-color="#06defb" stop-opacity="0.10484047"></stop></linearGradient><linearGradient gradientUnits="objectBoundingBox" id="linearGradient-4" node-id="20" spreadMethod="pad" x1="0.5" x2="0.5" y1="0" y2="1"><stop offset="0" stop-color="#1f5fff" stop-opacity="0"></stop><stop offset="1" stop-color="#0d3aff" stop-opacity="0.3716401"></stop></linearGradient><linearGradient gradientUnits="objectBoundingBox" id="linearGradient-5" node-id="23" spreadMethod="pad" x1="0.5" x2="0.5" y1="0.25170276" y2="1"><stop offset="0" stop-color="#ffffff" stop-opacity="0"></stop><stop offset="1" stop-color="#92c5ff" stop-opacity="0.1981261"></stop></linearGradient><linearGradient gradientUnits="objectBoundingBox" id="linearGradient-7" node-id="28" spreadMethod="pad" x1="0.8415874" x2="-0.333798" y1="0.5" y2="0.5"><stop offset="0" stop-color="#3e65ff"></stop><stop offset="1" stop-color="#72f0ff"></stop></linearGradient><linearGradient gradientUnits="objectBoundingBox" id="linearGradient-8" node-id="31" spreadMethod="pad" x1="0.5" x2="0.5" y1="0.21499257" y2="1"><stop offset="0" stop-color="#ffffff" stop-opacity="0"></stop><stop offset="1" stop-color="#92c5ff" stop-opacity="0.1981261"></stop></linearGradient><linearGradient gradientUnits="objectBoundingBox" id="linearGradient-9" node-id="34" spreadMethod="pad" x1="-0.00000000000000004965646" x2="1" y1="0.4840523" y2="0.52468157"><stop offset="0" stop-color="#556bed"></stop><stop offset="0.22628002" stop-color="#2c82f4"></stop><stop offset="0.42540547" stop-color="#2b5ced"></stop><stop offset="0.60926175" stop-color="#6874ff"></stop><stop offset="0.7225545" stop-color="#3e5ffb"></stop><stop offset="0.80829084" stop-color="#3d55ea" stop-opacity="0.9664281"></stop><stop offset="0.9020706" stop-color="#4675ff"></stop><stop offset="1" stop-color="#9fe2fd"></stop></linearGradient><linearGradient gradientUnits="objectBoundingBox" id="linearGradient-10" node-id="43" spreadMethod="pad" x1="0.43983558" x2="0.5410774" y1="0.5656425" y2="0.46577743"><stop offset="0.00038243007" stop-color="#dcf2ff"></stop><stop offset="1" stop-color="#5cb3ff"></stop></linearGradient><radialGradient cx="0.5" cy="0.5" fx="0.5" fy="0.5" gradientUnits="objectBoundingBox" id="radialGradient-11" node-id="46" r="0.5" rev="11" spreadMethod="pad"><stop offset="0" stop-color="#00f6ff"></stop><stop offset="1" stop-color="#00fffe" stop-opacity="0"></stop></radialGradient><radialGradient cx="0.5" cy="0.5" fx="0.5" fy="0.5" gradientUnits="objectBoundingBox" id="radialGradient-12" node-id="49" r="0.43823937" rev="10" spreadMethod="pad"><stop offset="0" stop-color="#ffffff" stop-opacity="0.7709517"></stop><stop offset="1" stop-color="#ffffff" stop-opacity="0"></stop></radialGradient><radialGradient cx="0.5" cy="0.5" fx="0.5" fy="0.5" gradientUnits="objectBoundingBox" id="radialGradient1" node-id="177" r="0.364086" rev="9" spreadMethod="pad"><stop offset="0" stop-color="#ffffff"></stop><stop offset="1" stop-color="#006dff" stop-opacity="0"></stop></radialGradient><radialGradient cx="0.5" cy="0.5" fx="0.5" fy="0.5" gradientUnits="objectBoundingBox" id="radialGradient2" node-id="184" r="0.364086" rev="8" spreadMethod="pad"><stop offset="0" stop-color="#ffffff"></stop><stop offset="1" stop-color="#006dff" stop-opacity="0"></stop></radialGradient><radialGradient cx="0.5" cy="0.5" fx="0.5" fy="0.5" gradientUnits="objectBoundingBox" id="radialGradient3" node-id="191" r="0.364086" rev="7" spreadMethod="pad"><stop offset="0" stop-color="#ffffff"></stop><stop offset="1" stop-color="#006dff" stop-opacity="0"></stop></radialGradient><radialGradient cx="0.5" cy="0.5" fx="0.5" fy="0.5" gradientUnits="objectBoundingBox" id="radialGradient4" node-id="198" r="0.364086" rev="6" spreadMethod="pad"><stop offset="0" stop-color="#ffffff"></stop><stop offset="1" stop-color="#006dff" stop-opacity="0"></stop></radialGradient><radialGradient cx="0.5" cy="0.5" fx="0.5" fy="0.5" gradientUnits="objectBoundingBox" id="radialGradient5" node-id="205" r="0.364086" rev="5" spreadMethod="pad"><stop offset="0" stop-color="#ffffff"></stop><stop offset="1" stop-color="#006dff" stop-opacity="0"></stop></radialGradient><radialGradient cx="0.5" cy="0.5" fx="0.5" fy="0.5" gradientUnits="objectBoundingBox" id="radialGradient6" node-id="212" r="0.364086" rev="4" spreadMethod="pad"><stop offset="0" stop-color="#ffffff"></stop><stop offset="1" stop-color="#006dff" stop-opacity="0"></stop></radialGradient><radialGradient cx="0.5" cy="0.5" fx="0.5" fy="0.5" gradientUnits="objectBoundingBox" id="radialGradient7" node-id="219" r="0.364086" rev="3" spreadMethod="pad"><stop offset="0" stop-color="#ffffff"></stop><stop offset="1" stop-color="#006dff" stop-opacity="0"></stop></radialGradient><radialGradient cx="0.5" cy="0.5" fx="0.5" fy="0.5" gradientUnits="objectBoundingBox" id="radialGradient8" node-id="226" r="0.364086" rev="2" spreadMethod="pad"><stop offset="0" stop-color="#ffffff"></stop><stop offset="1" stop-color="#006dff" stop-opacity="0"></stop></radialGradient><radialGradient cx="0.5" cy="0.5" fx="0.5" fy="0.5" gradientUnits="objectBoundingBox" id="radialGradient-13" node-id="52" r="0.364086" rev="1" spreadMethod="pad"><stop offset="0" stop-color="#ffffff"></stop><stop offset="1" stop-color="#006dff" stop-opacity="0"></stop></radialGradient><filter filterUnits="objectBoundingBox" height="778.5" id="filter-6" node-id="26" width="95" x="347.75076" y="57.834858"><feGaussianBlur color-interpolation-filters="linearRGB" in="SourceGraphic" result="result1" stdDeviation="0 0"></feGaussianBlur></filter></defs><path d="M 0.00 0.00 L 1024.00 0.00 L 1024.00 1024.00 L 0.00 1024.00 Z" fill="#080d23" fill-opacity="0" fill-rule="nonzero" node-id="245" stroke="none" target-height="1024" target-width="1024" target-x="0" target-y="0"></path><g node-id="247"><path d="M 498.30 496.00 L 546.50 504.50 L 533.40 515.20 L 538.40 522.90 L 540.40 527.00 L 543.30 535.90 L 544.80 545.20 L 545.00 550.10 L 544.80 555.30 L 544.20 560.30 L 543.10 565.30 L 539.90 575.00 L 535.30 584.00 L 529.40 592.10 L 531.30 592.50 L 522.30 620.30 L 473.20 611.40 L 468.40 609.90 L 463.70 607.90 L 459.30 605.40 L 455.10 602.40 L 451.10 598.90 L 447.40 594.80 L 444.20 590.40 L 441.40 585.70 L 439.10 580.80 L 437.40 575.60 L 436.10 570.20 L 435.30 564.70 L 435.00 559.10 L 435.20 553.40 L 436.00 547.70 L 437.30 542.00 L 439.20 536.30 L 441.60 530.70 L 444.40 525.60 L 447.60 520.80 L 451.20 516.30 L 455.20 512.20 L 459.50 508.50 L 464.00 505.20 L 468.90 502.40 L 473.90 500.10 L 479.10 498.20 L 484.50 496.90 L 490.00 496.20 L 498.30 496.00 Z M 470.70 378.70 L 478.50 377.40 L 487.00 376.50 L 496.30 376.00 L 503.20 376.10 L 518.00 377.30 L 526.00 378.60 L 533.70 380.30 L 541.70 382.50 L 550.10 385.30 L 558.80 388.70 L 567.10 392.50 L 575.80 397.10 L 584.70 402.50 L 594.00 408.70 L 602.70 415.20 L 611.70 422.70 L 621.00 431.20 L 630.70 440.80 L 633.10 443.80 L 635.00 447.10 L 636.40 450.60 L 637.40 454.30 L 637.90 458.00 L 638.00 461.90 L 637.60 465.80 L 636.70 469.60 L 635.40 473.30 L 646.50 475.50 L 647.30 500.50 L 601.70 492.50 L 596.20 490.60 L 591.20 487.50 L 580.50 477.00 L 572.30 469.60 L 564.20 463.00 L 556.30 457.30 L 548.50 452.40 L 540.80 448.20 L 533.20 444.70 L 526.00 441.90 L 518.90 439.80 L 511.80 438.20 L 504.80 437.10 L 497.80 436.60 L 490.90 436.60 L 483.80 437.20 L 476.80 438.30 L 469.50 440.20 L 462.30 442.50 L 455.20 445.30 L 448.30 448.40 L 441.50 452.00 L 434.90 455.90 L 428.60 460.20 L 422.40 464.90 L 416.50 469.90 L 410.70 475.20 L 412.50 475.30 L 406.50 520.50 L 366.30 513.00 L 360.10 512.20 L 357.20 511.30 L 351.80 508.50 L 347.20 504.50 L 345.30 502.00 L 343.60 499.30 L 342.10 496.20 L 341.00 492.90 L 340.30 489.50 L 340.10 482.50 L 341.40 475.50 L 344.20 468.80 L 350.00 460.20 L 356.20 452.00 L 362.60 444.10 L 369.40 436.60 L 376.60 429.50 L 384.00 422.70 L 391.60 416.30 L 399.60 410.40 L 407.80 404.80 L 416.20 399.70 L 424.80 395.10 L 433.70 390.80 L 442.70 387.10 L 451.90 383.80 L 461.20 381.00 L 470.70 378.70 Z M 476.20 268.90 L 487.50 267.70 L 498.70 267.10 L 509.80 267.10 L 520.90 267.60 L 532.00 268.70 L 543.00 270.30 L 554.10 272.50 L 565.20 275.30 L 576.30 278.70 L 587.40 282.60 L 599.10 287.40 L 610.80 292.90 L 622.50 299.10 L 634.40 306.00 L 646.30 313.70 L 658.20 322.20 L 670.30 331.50 L 682.50 341.70 L 694.80 352.80 L 697.10 355.40 L 699.00 358.30 L 700.60 361.30 L 701.70 364.50 L 702.90 371.30 L 702.60 378.40 L 716.80 392.50 L 713.80 414.00 L 669.00 406.00 L 665.40 405.30 L 661.80 404.00 L 658.50 402.20 L 655.30 399.90 L 645.10 390.60 L 634.90 382.10 L 625.00 374.40 L 615.10 367.30 L 605.30 360.90 L 595.70 355.10 L 586.20 349.90 L 576.70 345.40 L 567.30 341.40 L 557.30 337.70 L 547.30 334.60 L 537.40 332.10 L 527.60 330.20 L 517.80 328.90 L 508.10 328.20 L 498.30 328.00 L 488.60 328.40 L 478.80 329.40 L 470.10 330.70 L 461.60 332.50 L 453.30 334.60 L 445.30 337.10 L 434.70 340.90 L 424.60 345.20 L 415.00 349.90 L 405.60 355.00 L 396.80 360.30 L 388.50 365.80 L 372.90 377.40 L 356.20 391.60 L 348.00 399.40 L 352.50 400.00 L 344.50 444.00 L 295.60 435.10 L 290.50 433.10 L 288.10 431.70 L 285.80 430.00 L 283.10 427.30 L 280.80 424.30 L 279.00 421.10 L 277.60 417.60 L 276.60 414.00 L 276.10 410.20 L 276.00 406.40 L 276.40 402.60 L 277.30 398.70 L 278.60 394.90 L 280.40 391.30 L 282.70 387.80 L 296.00 371.80 L 311.50 355.50 L 328.20 340.00 L 344.00 327.00 L 361.40 314.30 L 371.10 308.00 L 381.00 302.10 L 391.40 296.40 L 402.30 290.90 L 413.50 285.90 L 425.20 281.40 L 437.50 277.30 L 446.70 274.60 L 456.30 272.30 L 466.10 270.40 L 476.20 268.90 Z" fill="url(#linearGradient-1)" fill-rule="nonzero" group-id="1" id="形状结合" node-id="58" stroke="none" target-height="353.19998" target-width="440.8" target-x="276" target-y="267.1"></path><path d="M 389.20 476.80 L 386.40 483.50 L 385.10 490.50 L 385.30 497.50 L 386.00 500.90 L 387.10 504.20 L 388.60 507.30 L 390.40 510.20 L 392.50 512.80 L 394.90 515.10 L 397.60 517.00 L 400.40 518.50 L 403.40 519.70 L 406.60 520.60 L 409.90 521.00 L 413.30 520.90 L 416.70 520.50 L 420.00 519.60 L 423.20 518.40 L 429.20 514.80 L 434.30 509.90 L 438.40 503.80 L 443.70 496.60 L 449.40 489.90 L 455.50 483.50 L 461.80 477.60 L 468.50 472.00 L 475.50 466.90 L 482.70 462.30 L 490.10 458.10 L 497.80 454.30 L 505.60 451.10 L 513.60 448.50 L 521.80 446.30 L 528.80 445.20 L 535.90 444.60 L 542.80 444.60 L 549.80 445.10 L 556.80 446.20 L 563.90 447.80 L 571.00 449.90 L 578.20 452.70 L 585.80 456.20 L 593.50 460.40 L 601.30 465.30 L 609.20 471.00 L 617.30 477.60 L 625.50 485.00 L 633.90 493.40 L 636.80 495.90 L 639.90 497.90 L 643.10 499.40 L 646.60 500.40 L 650.10 500.90 L 653.70 501.00 L 657.30 500.60 L 660.90 499.60 L 664.40 498.20 L 667.70 496.40 L 670.90 494.10 L 673.90 491.20 L 676.60 488.00 L 678.80 484.60 L 680.50 481.10 L 681.80 477.30 L 682.60 473.60 L 683.00 469.70 L 682.90 465.90 L 682.40 462.20 L 681.40 458.50 L 679.90 455.10 L 678.00 451.80 L 675.70 448.80 L 666.00 439.20 L 656.70 430.70 L 647.70 423.20 L 639.00 416.70 L 629.70 410.50 L 620.80 405.10 L 612.10 400.50 L 603.80 396.70 L 595.10 393.30 L 586.70 390.50 L 578.70 388.30 L 571.00 386.60 L 563.00 385.30 L 548.20 384.10 L 541.30 384.00 L 532.00 384.50 L 523.50 385.40 L 515.70 386.70 L 506.20 389.00 L 496.90 391.80 L 487.70 395.10 L 478.70 398.80 L 469.80 403.10 L 461.20 407.70 L 452.80 412.80 L 444.60 418.40 L 436.60 424.30 L 429.00 430.70 L 421.60 437.50 L 414.40 444.60 L 407.60 452.10 L 401.20 460.00 L 395.00 468.20 L 389.20 476.80 Z M 535.00 504.20 L 529.50 504.90 L 524.10 506.20 L 518.90 508.10 L 513.90 510.40 L 509.00 513.20 L 504.50 516.50 L 500.20 520.20 L 496.20 524.30 L 492.60 528.80 L 489.40 533.60 L 486.60 538.70 L 484.20 544.30 L 482.30 550.00 L 481.00 555.70 L 480.20 561.40 L 480.00 567.10 L 480.30 572.70 L 481.10 578.20 L 482.40 583.60 L 484.10 588.80 L 486.40 593.70 L 489.20 598.40 L 492.40 602.80 L 496.10 606.90 L 500.30 610.50 L 504.60 613.60 L 509.20 616.10 L 514.10 618.10 L 519.10 619.60 L 524.20 620.60 L 529.50 621.00 L 534.90 620.80 L 540.20 620.20 L 545.50 618.90 L 550.80 617.10 L 556.10 614.70 L 561.10 611.80 L 565.70 608.50 L 570.00 604.70 L 574.00 600.50 L 577.60 596.10 L 580.70 591.20 L 583.50 586.20 L 585.80 580.90 L 587.60 575.40 L 588.90 569.80 L 589.70 564.00 L 590.00 558.10 L 589.80 553.00 L 589.20 548.00 L 588.10 543.10 L 586.70 538.40 L 584.90 533.90 L 582.70 529.60 L 580.10 525.50 L 577.20 521.70 L 573.90 518.10 L 569.80 514.60 L 565.50 511.50 L 560.90 509.00 L 556.10 506.90 L 551.00 505.40 L 545.80 504.40 L 540.50 504.00 L 535.00 504.20 Z M 521.20 276.90 L 511.10 278.40 L 501.30 280.30 L 491.70 282.60 L 482.50 285.30 L 470.20 289.40 L 458.50 293.90 L 447.30 298.90 L 436.40 304.40 L 426.00 310.10 L 416.10 316.00 L 406.40 322.30 L 389.00 335.00 L 373.20 348.00 L 356.50 363.50 L 341.00 379.80 L 327.70 395.80 L 325.40 399.30 L 323.60 402.90 L 322.30 406.70 L 321.40 410.60 L 321.00 414.40 L 321.10 418.20 L 321.60 422.00 L 322.60 425.60 L 324.00 429.10 L 325.80 432.30 L 328.10 435.30 L 330.80 438.00 L 333.90 440.20 L 337.20 441.90 L 340.50 443.10 L 344.10 443.80 L 347.70 444.00 L 351.30 443.70 L 354.90 443.00 L 358.30 441.80 L 361.80 440.00 L 365.00 437.90 L 368.00 435.30 L 381.80 419.20 L 396.80 403.80 L 413.50 388.90 L 429.40 376.70 L 437.90 370.80 L 447.10 365.10 L 456.90 359.50 L 466.90 354.50 L 477.40 349.80 L 488.50 345.70 L 496.90 343.00 L 505.60 340.70 L 514.60 338.80 L 523.80 337.40 L 533.60 336.40 L 543.30 336.00 L 553.10 336.20 L 562.80 336.90 L 572.60 338.20 L 582.40 340.10 L 592.30 342.60 L 602.30 345.70 L 612.30 349.40 L 621.70 353.40 L 631.20 357.90 L 640.70 363.10 L 650.30 368.90 L 660.10 375.30 L 670.00 382.40 L 679.90 390.10 L 690.10 398.60 L 700.30 407.90 L 703.40 410.20 L 706.60 411.90 L 709.90 413.10 L 713.40 413.90 L 716.90 414.20 L 720.50 414.00 L 724.10 413.30 L 727.60 412.20 L 731.00 410.60 L 734.20 408.50 L 737.30 406.00 L 740.10 403.00 L 742.60 399.70 L 744.50 396.20 L 746.10 392.60 L 747.20 388.80 L 747.80 385.00 L 748.00 381.20 L 747.70 377.40 L 747.00 373.70 L 745.90 370.10 L 744.30 366.80 L 742.30 363.60 L 739.80 360.80 L 727.50 349.70 L 715.30 339.50 L 703.20 330.20 L 691.30 321.70 L 679.40 314.00 L 667.50 307.10 L 655.80 300.90 L 644.10 295.40 L 632.40 290.60 L 621.30 286.70 L 610.20 283.30 L 599.10 280.50 L 588.00 278.30 L 577.00 276.70 L 565.90 275.60 L 554.80 275.10 L 543.70 275.10 L 532.50 275.70 L 521.20 276.90 Z" fill="url(#linearGradient-2)" fill-rule="nonzero" group-id="1" id="形状" node-id="59" stroke="none" target-height="345.9" target-width="427" target-x="321" target-y="275.1"></path><path d="M 534.90 502.70 L 539.90 502.50 L 544.80 502.80 L 549.60 503.60 L 554.30 504.80 L 558.80 506.40 L 563.20 508.40 L 567.30 510.90 L 571.20 513.80 L 574.90 517.10 L 578.30 520.70 L 581.30 524.60 L 584.00 528.80 L 586.20 533.20 L 588.10 537.90 L 589.60 542.70 L 590.60 547.70 L 591.30 552.80 L 591.50 558.10 L 591.20 564.10 L 590.40 570.00 L 589.00 575.80 L 587.20 581.40 L 584.80 586.80 L 582.00 592.00 L 578.80 596.90 L 575.10 601.50 L 571.10 605.80 L 566.60 609.60 L 561.90 613.00 L 556.70 616.00 L 551.30 618.50 L 545.90 620.40 L 540.50 621.60 L 534.90 622.30 L 529.50 622.50 L 524.10 622.10 L 518.70 621.10 L 513.60 619.50 L 508.60 617.40 L 503.80 614.80 L 499.30 611.70 L 495.10 607.90 L 491.20 603.80 L 487.90 599.30 L 485.10 594.50 L 482.80 589.40 L 480.90 584.10 L 479.60 578.50 L 478.80 572.90 L 478.50 567.10 L 478.80 561.20 L 479.50 555.40 L 480.90 549.60 L 482.80 543.70 L 485.10 538.30 L 487.90 533.20 L 491.00 528.40 L 494.50 524.00 L 498.40 519.80 L 502.50 516.10 L 506.90 512.80 L 511.60 509.90 L 516.50 507.40 L 521.60 505.50 L 526.80 504.00 L 534.90 502.70 Z M 572.80 519.20 L 569.10 515.90 L 565.20 513.10 L 561.00 510.70 L 556.60 508.70 L 552.10 507.20 L 547.40 506.20 L 542.50 505.60 L 537.30 505.50 L 529.80 506.40 L 524.60 507.60 L 519.60 509.40 L 514.70 511.60 L 510.10 514.30 L 505.60 517.50 L 501.50 521.00 L 497.60 524.90 L 494.10 529.30 L 491.00 533.90 L 488.20 538.80 L 485.80 544.10 L 483.80 550.40 L 482.50 555.90 L 481.70 561.50 L 481.50 567.10 L 481.80 572.50 L 482.50 577.90 L 483.80 583.20 L 485.50 588.20 L 487.70 593.00 L 490.40 597.60 L 493.60 601.80 L 497.20 605.80 L 501.20 609.30 L 505.40 612.30 L 509.90 614.80 L 514.60 616.70 L 519.50 618.20 L 524.50 619.10 L 529.60 619.50 L 534.80 619.30 L 539.90 618.70 L 545.10 617.50 L 550.20 615.70 L 555.40 613.40 L 560.20 610.50 L 564.80 607.30 L 569.00 603.60 L 572.90 599.50 L 576.40 595.20 L 579.50 590.50 L 582.10 585.50 L 584.40 580.40 L 586.10 575.00 L 587.40 569.50 L 588.20 563.90 L 588.50 558.10 L 588.20 552.40 L 587.50 547.00 L 586.20 541.70 L 584.40 536.70 L 582.20 531.80 L 579.50 527.30 L 576.40 523.10 L 572.80 519.20 Z M 515.40 385.20 L 524.10 383.80 L 532.80 382.90 L 541.70 382.50 L 550.70 382.70 L 559.70 383.40 L 568.80 384.70 L 578.00 386.60 L 587.50 389.10 L 596.40 392.10 L 605.40 395.80 L 614.40 400.00 L 623.50 404.90 L 632.70 410.60 L 641.30 416.50 L 650.10 423.10 L 658.90 430.50 L 667.80 438.70 L 676.80 447.80 L 679.30 451.00 L 681.30 454.40 L 682.80 458.00 L 683.80 461.80 L 684.40 465.70 L 684.50 469.80 L 684.10 473.80 L 683.20 477.70 L 681.90 481.60 L 680.10 485.40 L 677.80 488.90 L 675.00 492.30 L 671.90 495.20 L 668.50 497.70 L 665.00 499.60 L 661.30 501.10 L 657.50 502.00 L 653.80 502.50 L 649.90 502.40 L 646.20 501.90 L 642.60 500.80 L 639.10 499.20 L 635.90 497.10 L 632.80 494.50 L 624.50 486.10 L 616.30 478.70 L 608.30 472.30 L 600.50 466.60 L 592.80 461.70 L 585.20 457.60 L 577.70 454.10 L 570.60 451.40 L 563.60 449.20 L 556.70 447.70 L 549.70 446.60 L 542.80 446.10 L 536.00 446.10 L 529.10 446.70 L 522.10 447.70 L 514.00 449.90 L 506.10 452.60 L 498.40 455.70 L 490.80 459.40 L 483.40 463.50 L 476.30 468.10 L 469.40 473.20 L 462.80 478.70 L 456.50 484.60 L 450.50 490.90 L 444.90 497.60 L 435.30 511.10 L 430.00 516.00 L 424.00 519.70 L 420.70 521.00 L 417.40 521.90 L 413.40 522.40 L 409.80 522.40 L 406.30 522.00 L 403.00 521.20 L 399.80 519.90 L 396.80 518.30 L 394.00 516.20 L 391.40 513.80 L 389.20 511.10 L 387.20 508.00 L 385.70 504.70 L 384.60 501.30 L 383.80 497.70 L 383.50 494.10 L 383.60 490.40 L 384.10 486.70 L 385.00 483.10 L 386.20 479.50 L 387.90 476.10 L 393.80 467.30 L 400.00 459.00 L 406.50 451.10 L 413.30 443.60 L 420.50 436.40 L 428.00 429.60 L 435.70 423.20 L 443.70 417.20 L 452.00 411.60 L 460.50 406.40 L 469.20 401.70 L 478.10 397.50 L 487.20 393.60 L 496.40 390.30 L 505.80 387.50 L 515.40 385.20 Z M 586.60 392.00 L 577.40 389.50 L 568.30 387.60 L 559.40 386.40 L 550.60 385.70 L 541.80 385.50 L 533.00 385.90 L 524.50 386.70 L 516.00 388.10 L 506.60 390.40 L 497.40 393.20 L 488.20 396.50 L 479.30 400.20 L 470.50 404.40 L 461.90 409.00 L 453.60 414.10 L 445.40 419.60 L 437.50 425.50 L 429.90 431.80 L 422.60 438.50 L 415.50 445.70 L 408.80 453.10 L 402.30 460.90 L 396.30 469.10 L 390.50 477.60 L 388.90 481.10 L 387.80 484.20 L 386.60 490.70 L 386.80 497.10 L 388.40 503.30 L 389.90 506.60 L 393.60 511.80 L 398.40 515.70 L 403.90 518.30 L 410.00 519.50 L 413.20 519.40 L 416.50 519.00 L 422.60 517.00 L 428.30 513.60 L 433.20 508.90 L 437.10 503.00 L 442.60 495.70 L 448.30 488.90 L 454.40 482.50 L 460.80 476.40 L 467.60 470.80 L 474.60 465.70 L 481.90 461.00 L 489.40 456.70 L 497.20 453.00 L 505.10 449.70 L 513.20 447.00 L 521.50 444.80 L 528.70 443.70 L 535.80 443.10 L 542.90 443.10 L 550.00 443.60 L 557.10 444.70 L 564.20 446.30 L 571.40 448.50 L 578.70 451.20 L 586.40 454.80 L 594.20 459.00 L 602.00 464.00 L 610.00 469.80 L 618.20 476.40 L 626.50 483.90 L 637.70 494.70 L 640.60 496.60 L 643.70 498.00 L 646.90 499.00 L 650.30 499.50 L 653.70 499.50 L 657.10 499.10 L 660.40 498.20 L 663.80 496.90 L 667.00 495.10 L 670.00 492.90 L 672.80 490.20 L 675.40 487.10 L 677.40 483.90 L 679.10 480.50 L 680.30 477.00 L 681.10 473.40 L 681.50 469.70 L 681.40 466.10 L 680.90 462.50 L 680.00 459.10 L 678.60 455.80 L 676.80 452.70 L 674.60 449.80 L 665.70 440.90 L 656.90 432.80 L 648.20 425.50 L 639.60 419.00 L 631.10 413.10 L 622.10 407.60 L 613.10 402.70 L 604.20 398.50 L 595.40 395.00 L 586.60 392.00 Z M 740.80 359.70 L 743.50 362.70 L 745.60 366.00 L 747.30 369.50 L 748.50 373.30 L 749.20 377.10 L 749.50 381.10 L 749.30 385.10 L 748.60 389.10 L 747.50 393.00 L 745.90 396.90 L 743.80 400.50 L 741.30 404.00 L 738.30 407.10 L 735.10 409.80 L 731.70 411.90 L 728.10 413.60 L 724.40 414.80 L 720.70 415.50 L 716.90 415.70 L 713.10 415.40 L 709.40 414.60 L 705.90 413.20 L 702.50 411.40 L 699.30 409.00 L 687.80 398.70 L 676.50 389.30 L 665.40 380.90 L 654.40 373.30 L 643.60 366.50 L 632.90 360.50 L 622.30 355.30 L 611.90 350.80 L 601.90 347.10 L 592.00 344.00 L 582.20 341.60 L 572.40 339.70 L 562.70 338.40 L 553.00 337.70 L 543.40 337.50 L 533.70 337.90 L 524.00 338.90 L 514.60 340.30 L 505.30 342.30 L 496.10 344.80 L 487.00 347.70 L 478.10 351.10 L 469.20 355.00 L 460.40 359.30 L 451.70 364.10 L 434.90 374.70 L 418.30 386.90 L 409.60 394.10 L 401.50 401.40 L 386.40 416.40 L 378.10 425.70 L 369.00 436.40 L 365.90 439.10 L 362.50 441.40 L 358.90 443.20 L 355.20 444.40 L 351.40 445.20 L 347.60 445.50 L 343.90 445.30 L 340.10 444.50 L 336.50 443.30 L 333.10 441.50 L 329.90 439.10 L 327.00 436.30 L 324.60 433.20 L 322.60 429.80 L 321.20 426.10 L 320.10 422.30 L 319.60 418.40 L 319.50 414.40 L 319.90 410.30 L 320.80 406.30 L 322.20 402.40 L 324.10 398.60 L 326.50 394.90 L 334.00 385.60 L 349.20 368.70 L 363.50 354.70 L 379.30 340.90 L 398.30 326.20 L 408.60 319.00 L 419.10 312.40 L 429.70 306.20 L 440.60 300.40 L 451.60 295.20 L 462.80 290.50 L 474.10 286.40 L 485.60 282.70 L 497.20 279.70 L 509.00 277.30 L 521.00 275.40 L 532.30 274.20 L 543.60 273.60 L 554.80 273.60 L 566.00 274.10 L 577.10 275.20 L 588.30 276.80 L 599.40 279.00 L 610.50 281.80 L 621.70 285.20 L 632.90 289.20 L 644.60 294.10 L 656.40 299.60 L 668.20 305.80 L 680.10 312.80 L 692.10 320.50 L 704.10 329.00 L 716.30 338.40 L 728.50 348.60 L 740.80 359.70 Z M 738.70 361.90 L 726.50 350.80 L 714.40 340.70 L 702.40 331.40 L 690.50 323.00 L 678.60 315.40 L 666.90 308.50 L 655.20 302.30 L 643.50 296.80 L 632.00 292.10 L 620.90 288.10 L 609.80 284.80 L 598.80 282.00 L 587.80 279.80 L 576.80 278.10 L 565.80 277.10 L 554.80 276.60 L 543.70 276.60 L 532.60 277.20 L 521.40 278.40 L 509.60 280.20 L 497.90 282.60 L 486.40 285.60 L 475.00 289.20 L 463.80 293.30 L 452.80 298.00 L 441.90 303.10 L 431.10 308.80 L 420.60 314.90 L 410.30 321.50 L 400.00 328.60 L 389.90 336.20 L 373.10 350.10 L 358.10 364.00 L 345.10 377.40 L 336.30 387.50 L 328.90 396.70 L 326.70 400.00 L 325.00 403.50 L 323.70 407.10 L 322.90 410.80 L 322.50 414.40 L 322.60 418.10 L 323.10 421.70 L 324.00 425.10 L 325.30 428.40 L 327.00 431.50 L 329.20 434.30 L 331.80 436.80 L 334.70 438.90 L 337.80 440.50 L 341.00 441.60 L 344.30 442.30 L 347.70 442.50 L 351.10 442.20 L 354.50 441.50 L 357.80 440.40 L 361.10 438.70 L 364.10 436.70 L 366.90 434.30 L 375.80 423.70 L 384.20 414.30 L 399.40 399.20 L 407.70 391.90 L 416.40 384.60 L 433.20 372.20 L 450.30 361.40 L 459.10 356.60 L 468.00 352.20 L 477.00 348.30 L 486.10 344.90 L 495.30 341.90 L 504.70 339.40 L 514.10 337.40 L 523.60 335.90 L 533.50 334.90 L 543.30 334.50 L 553.10 334.70 L 563.00 335.40 L 572.80 336.70 L 582.70 338.60 L 592.70 341.10 L 602.70 344.20 L 612.80 348.00 L 622.30 352.00 L 631.80 356.60 L 641.40 361.80 L 651.10 367.60 L 660.90 374.00 L 670.80 381.10 L 680.80 388.90 L 691.00 397.50 L 701.30 406.80 L 704.20 408.90 L 707.20 410.50 L 710.40 411.70 L 713.70 412.40 L 717.00 412.70 L 720.40 412.50 L 723.80 411.90 L 727.10 410.80 L 730.30 409.20 L 733.40 407.30 L 736.20 404.90 L 739.00 402.10 L 741.30 398.90 L 743.20 395.60 L 744.70 392.10 L 745.70 388.50 L 746.30 384.90 L 746.50 381.20 L 746.30 377.60 L 745.60 374.10 L 744.50 370.70 L 743.00 367.50 L 741.10 364.60 L 738.70 361.90 Z" fill="url(#linearGradient-3)" fill-rule="nonzero" group-id="1" id="形状" node-id="60" stroke="none" target-height="348.9" target-width="430" target-x="319.5" target-y="273.6"></path></g><g node-id="248"><path d="M 139.60 409.40 L 884.60 409.40 L 779.70 734.60 L 244.50 734.60 Z" fill="url(#linearGradient-4)" fill-rule="evenodd" group-id="2" id="矩形" node-id="62" stroke="none" target-height="325.19998" target-width="745" target-x="139.6" target-y="409.4"></path><path d="M 512.60 607.80 L 564.10 608.40 L 588.50 609.10 L 636.10 611.30 L 680.20 614.40 L 719.60 618.30 L 738.60 620.60 L 770.90 625.60 L 786.10 628.60 L 799.00 631.50 L 809.90 634.40 L 818.30 637.10 L 825.10 639.60 L 830.60 642.10 L 834.80 644.40 L 838.40 646.90 L 840.80 649.20 L 842.40 651.30 L 843.30 653.30 L 843.60 655.30 L 843.30 657.30 L 842.40 659.40 L 840.80 661.50 L 838.40 663.80 L 834.80 666.20 L 830.60 668.60 L 825.10 671.00 L 818.30 673.60 L 809.90 676.20 L 799.00 679.10 L 786.10 682.10 L 770.90 685.00 L 755.60 687.60 L 738.60 690.00 L 700.60 694.40 L 658.20 698.00 L 612.90 700.60 L 588.50 701.60 L 538.80 702.70 L 486.40 702.70 L 461.10 702.30 L 412.30 700.60 L 367.00 698.00 L 345.00 696.30 L 305.60 692.40 L 286.60 690.00 L 254.30 685.00 L 239.10 682.10 L 226.10 679.10 L 215.20 676.20 L 206.90 673.60 L 200.10 671.00 L 194.60 668.60 L 190.30 666.20 L 186.80 663.80 L 184.40 661.50 L 182.80 659.40 L 181.90 657.30 L 181.60 655.30 L 181.90 653.30 L 182.80 651.30 L 184.40 649.20 L 186.80 646.90 L 190.30 644.40 L 194.60 642.10 L 200.10 639.60 L 206.90 637.10 L 215.20 634.40 L 226.10 631.50 L 239.10 628.60 L 254.30 625.60 L 269.60 623.10 L 286.60 620.60 L 324.50 616.20 L 345.00 614.40 L 389.00 611.30 L 436.70 609.10 L 461.10 608.40 L 512.60 607.80 Z M 512.60 613.80 L 479.40 614.10 L 447.40 614.80 L 415.70 615.90 L 385.70 617.50 L 356.40 619.50 L 329.20 621.80 L 302.90 624.60 L 279.40 627.70 L 264.40 630.00 L 239.30 634.60 L 227.60 637.30 L 209.50 642.50 L 201.60 645.50 L 195.80 648.20 L 191.80 650.70 L 189.50 652.50 L 188.20 653.90 L 187.60 655.30 L 188.20 656.70 L 189.50 658.20 L 191.80 660.00 L 195.80 662.40 L 201.60 665.10 L 209.50 668.10 L 227.60 673.30 L 239.30 676.00 L 264.40 680.70 L 279.40 683.00 L 302.90 686.10 L 329.20 688.90 L 356.40 691.20 L 385.70 693.20 L 415.70 694.80 L 447.40 695.90 L 479.40 696.60 L 512.60 696.80 L 545.70 696.60 L 577.80 695.90 L 609.50 694.80 L 639.40 693.20 L 668.80 691.20 L 695.90 688.90 L 722.20 686.10 L 745.80 683.00 L 760.70 680.70 L 785.80 676.00 L 797.60 673.30 L 815.60 668.10 L 823.60 665.10 L 829.40 662.40 L 833.40 660.00 L 835.70 658.20 L 837.00 656.70 L 837.60 655.30 L 837.00 653.90 L 835.70 652.50 L 833.40 650.70 L 829.40 648.20 L 823.60 645.50 L 815.60 642.50 L 797.60 637.30 L 785.80 634.60 L 760.70 630.00 L 745.80 627.70 L 722.20 624.60 L 695.90 621.80 L 668.80 619.50 L 639.40 617.50 L 609.50 615.90 L 577.80 614.80 L 545.70 614.10 L 512.60 613.80 Z" fill="url(#linearGradient-5)" fill-rule="nonzero" group-id="2" id="椭圆形备份-3" node-id="63" stroke="none" target-height="94.900024" target-width="662" target-x="181.6" target-y="607.8"></path><g node-id="250"><path d="M 125.20 855.80 L 319.30 800.00 L 705.40 800.00 L 901.20 855.80 L 511.50 904.00 Z" fill="#001d69" fill-opacity="0.3005354" fill-rule="evenodd" group-id="2,4" id="多边形备份" node-id="64" stroke="none" target-height="104" target-width="776" target-x="125.2" target-y="800"></path></g><g node-id="251"><path d="M 122.50 856.80 L 317.80 809.00 L 704.90 809.00 L 901.00 856.80 L 511.50 904.00 Z" fill="#001d69" fill-opacity="0.3005354" fill-rule="evenodd" filter="url(#filter-6)" group-id="2,5" id="多边形备份-4" node-id="65" stroke="none" target-height="95" target-width="778.5" target-x="122.5" target-y="809"></path></g><g node-id="252"><path d="M 121.10 850.90 L 317.80 803.00 L 704.90 803.00 L 902.40 850.90 L 903.90 851.50 L 906.00 853.30 L 906.80 855.20 L 907.00 857.10 L 906.60 859.10 L 905.50 860.80 L 903.30 862.30 L 901.70 862.70 L 510.80 910.00 L 121.80 862.70 L 120.20 862.30 L 118.00 860.70 L 116.90 859.00 L 116.50 857.10 L 116.70 855.10 L 117.50 853.30 L 119.60 851.50 L 121.10 850.90 Z M 122.50 856.80 L 511.50 904.00 L 901.00 856.80 L 704.90 809.00 L 317.80 809.00 L 122.50 856.80 Z" fill="url(#linearGradient-7)" fill-rule="nonzero" group-id="2,6" id="多边形备份-4" node-id="66" stroke="none" target-height="107" target-width="790.5" target-x="116.5" target-y="803"></path></g><g node-id="253"><path d="M 122.50 856.50 L 315.20 809.00 L 705.00 809.00 L 901.00 856.50 L 512.00 904.00 Z" fill="#001d69" fill-opacity="0.3005354" fill-rule="evenodd" group-id="2,7" id="多边形备份-3" node-id="67" stroke="none" target-height="95" target-width="778.5" target-x="122.5" target-y="809"></path></g><path d="M 512.10 566.30 L 553.10 566.60 L 592.00 567.40 L 630.10 568.70 L 665.30 570.50 L 699.50 572.80 L 730.10 575.40 L 750.00 577.40 L 784.00 581.80 L 800.10 584.30 L 813.70 586.90 L 825.20 589.40 L 841.20 593.90 L 851.40 598.10 L 855.20 600.30 L 857.80 602.30 L 859.40 604.10 L 860.30 605.90 L 860.60 607.50 L 860.30 609.20 L 859.40 610.90 L 857.80 612.80 L 855.20 614.80 L 851.40 617.00 L 841.20 621.10 L 825.20 625.70 L 813.70 628.20 L 800.10 630.80 L 784.00 633.30 L 750.00 637.70 L 730.10 639.70 L 699.50 642.30 L 665.30 644.60 L 630.10 646.30 L 592.00 647.70 L 553.10 648.50 L 512.10 648.80 L 471.10 648.50 L 432.20 647.70 L 394.10 646.30 L 358.80 644.60 L 324.70 642.30 L 294.10 639.70 L 274.20 637.70 L 240.10 633.30 L 224.10 630.80 L 210.50 628.20 L 199.00 625.70 L 183.00 621.10 L 172.80 617.00 L 169.00 614.80 L 166.40 612.80 L 164.80 610.90 L 163.90 609.20 L 163.60 607.50 L 163.90 605.90 L 164.80 604.10 L 166.40 602.30 L 169.00 600.30 L 172.80 598.10 L 183.00 593.90 L 199.00 589.40 L 210.50 586.90 L 224.10 584.30 L 256.20 579.50 L 294.10 575.40 L 324.70 572.80 L 358.80 570.50 L 394.10 568.70 L 432.20 567.40 L 471.10 566.60 L 512.10 566.30 Z M 512.10 572.30 L 477.10 572.50 L 443.40 573.10 L 410.00 574.10 L 378.40 575.50 L 347.50 577.20 L 318.90 579.20 L 291.20 581.70 L 266.40 584.30 L 243.40 587.30 L 224.10 590.40 L 211.70 592.70 L 192.60 597.30 L 184.10 599.90 L 177.90 602.30 L 173.70 604.40 L 171.20 606.00 L 169.70 607.50 L 171.20 609.00 L 173.70 610.60 L 177.90 612.80 L 184.10 615.20 L 192.60 617.80 L 201.30 620.00 L 224.10 624.70 L 243.40 627.70 L 266.40 630.70 L 291.20 633.40 L 318.90 635.80 L 347.50 637.90 L 378.40 639.60 L 410.00 641.00 L 443.40 641.90 L 477.10 642.50 L 512.10 642.80 L 547.00 642.50 L 580.80 641.90 L 614.10 641.00 L 645.70 639.60 L 676.70 637.90 L 705.30 635.80 L 733.00 633.40 L 757.80 630.70 L 780.80 627.70 L 800.10 624.70 L 812.50 622.30 L 831.60 617.80 L 840.10 615.20 L 846.20 612.80 L 850.50 610.60 L 852.90 609.00 L 854.50 607.50 L 852.90 606.00 L 850.50 604.40 L 846.20 602.30 L 840.10 599.90 L 831.60 597.30 L 812.50 592.70 L 800.10 590.40 L 780.80 587.30 L 757.80 584.30 L 733.00 581.70 L 705.30 579.20 L 676.70 577.20 L 645.70 575.50 L 614.10 574.10 L 580.80 573.10 L 547.00 572.50 L 512.10 572.30 Z" fill="url(#linearGradient-8)" fill-rule="nonzero" group-id="2" id="椭圆形备份-4" node-id="68" stroke="none" target-height="82.5" target-width="697" target-x="163.6" target-y="566.3"></path><path d="M 198.00 735.00 L 826.00 737.80 L 826.00 839.60 L 827.00 839.80 L 511.50 874.80 L 199.80 840.00 L 198.00 840.00 L 198.00 735.00 Z" fill="url(#linearGradient-9)" fill-rule="evenodd" group-id="2" id="形状结合" node-id="69" stroke="none" target-height="139.79999" target-width="629" target-x="198" target-y="735"></path><g node-id="254"><path d="M 204.00 738.00 L 512.00 707.30 L 819.00 737.50 L 512.20 772.80 Z" fill="#2a64f6" fill-rule="evenodd" group-id="2,8" id="矩形" node-id="70" stroke="none" target-height="65.5" target-width="615" target-x="204" target-y="707.3"></path></g><g node-id="255"><path d="M 203.30 731.00 L 512.70 700.30 L 819.70 730.50 L 821.70 731.00 L 823.20 731.80 L 824.40 732.90 L 825.30 734.30 L 826.00 737.40 L 825.30 740.60 L 824.50 742.00 L 823.30 743.10 L 821.80 744.00 L 819.80 744.50 L 511.50 779.70 L 203.20 745.00 L 201.20 744.50 L 199.70 743.60 L 198.50 742.50 L 197.70 741.10 L 197.00 738.00 L 197.70 734.80 L 198.60 733.40 L 199.80 732.30 L 201.30 731.50 L 203.30 731.00 Z M 204.00 738.00 L 512.20 772.70 L 819.00 737.50 L 512.00 707.20 L 204.00 738.00 Z" fill="url(#linearGradient-10)" fill-rule="nonzero" group-id="2,9" id="矩形" node-id="71" stroke="none" target-height="79.400024" target-width="629" target-x="197" target-y="700.3"></path></g><path d="M 511.00 775.00 L 568.40 774.30 L 623.90 772.10 L 675.70 768.80 L 700.00 766.60 L 722.00 764.30 L 743.10 761.70 L 761.10 759.00 L 772.80 756.90 L 791.30 752.80 L 799.70 750.40 L 806.00 748.10 L 810.60 746.00 L 815.40 742.80 L 817.30 740.00 L 817.50 738.80 L 817.30 737.50 L 816.60 736.10 L 815.40 734.70 L 813.50 733.20 L 810.60 731.50 L 806.00 729.40 L 799.60 727.10 L 791.20 724.80 L 772.70 720.70 L 742.90 716.00 L 721.80 713.30 L 699.80 711.10 L 650.30 707.20 L 596.30 704.50 L 539.40 703.00 L 481.60 703.00 L 425.10 704.50 L 371.60 707.20 L 322.70 711.10 L 301.00 713.30 L 280.20 716.00 L 262.40 718.70 L 241.10 722.70 L 224.50 727.10 L 218.30 729.40 L 213.70 731.50 L 210.90 733.20 L 209.10 734.70 L 207.20 737.50 L 207.00 738.80 L 207.20 740.00 L 207.90 741.40 L 211.00 744.30 L 213.70 746.00 L 218.30 748.10 L 224.60 750.40 L 232.80 752.80 L 251.00 756.90 L 262.60 759.00 L 280.40 761.70 L 301.20 764.30 L 323.00 766.60 L 347.10 768.80 L 398.50 772.10 L 453.70 774.30 L 511.00 775.00 Z" fill="url(#radialGradient-11)" fill-rule="evenodd" group-id="2" id="椭圆形备份-19" node-id="72" stroke="none" target-height="72" target-width="610.5" target-x="207" target-y="703"></path><path d="M 644.60 737.90 L 644.30 739.00 L 643.50 740.20 L 641.80 741.50 L 638.90 742.90 L 634.40 744.60 L 627.60 746.40 L 618.10 748.30 L 605.50 750.20 L 592.60 751.70 L 562.40 754.00 L 528.80 755.20 L 511.10 755.30 L 493.40 755.20 L 459.80 754.00 L 429.60 751.70 L 416.70 750.20 L 404.00 748.30 L 394.60 746.40 L 387.70 744.60 L 383.20 742.90 L 380.40 741.50 L 378.70 740.20 L 377.90 739.00 L 377.60 737.90 L 377.90 736.80 L 378.70 735.70 L 380.40 734.40 L 383.20 732.90 L 387.70 731.30 L 394.60 729.40 L 404.00 727.50 L 416.70 725.60 L 429.60 724.10 L 459.80 721.80 L 493.40 720.70 L 511.10 720.50 L 528.80 720.70 L 562.40 721.80 L 592.60 724.10 L 605.50 725.60 L 618.10 727.50 L 627.60 729.40 L 634.40 731.30 L 638.90 732.90 L 641.80 734.40 L 643.50 735.70 L 644.30 736.80 L 644.60 737.90 Z" fill="url(#radialGradient-12)" fill-rule="evenodd" group-id="2" id="椭圆形备份-20" node-id="73" stroke="none" target-height="34.799988" target-width="266.99997" target-x="377.6" target-y="720.5"></path></g><g node-id="249"><path d="M 238.00 374.50 L 237.70 377.50 L 237.00 380.30 L 235.70 382.80 L 234.10 385.10 L 232.10 387.10 L 229.80 388.70 L 227.30 390.00 L 224.50 390.70 L 221.50 391.00 L 218.50 390.70 L 215.70 390.00 L 213.20 388.70 L 210.90 387.10 L 208.90 385.10 L 207.30 382.80 L 206.00 380.30 L 205.30 377.50 L 205.00 374.50 L 205.30 371.50 L 206.00 368.70 L 207.30 366.20 L 208.90 363.90 L 210.90 361.90 L 213.20 360.30 L 215.70 359.00 L 218.50 358.30 L 221.50 358.00 L 224.50 358.30 L 227.30 359.00 L 229.80 360.30 L 232.10 361.90 L 234.10 363.90 L 235.70 366.20 L 237.00 368.70 L 237.70 371.50 L 238.00 374.50 Z" fill="url(#radialGradient1)" fill-rule="evenodd" group-id="3" id="椭圆形" node-id="75" stroke="none" target-height="33" target-width="33" target-x="205" target-y="358"></path><path d="M 379.00 186.50 L 378.20 190.90 L 376.10 194.60 L 372.80 197.30 L 370.90 198.20 L 366.50 199.00 L 362.10 198.20 L 358.40 196.10 L 355.70 192.80 L 354.20 188.80 L 354.00 186.50 L 354.20 184.20 L 354.80 182.10 L 356.90 178.40 L 360.20 175.70 L 362.10 174.80 L 366.50 174.00 L 370.90 174.80 L 374.60 176.90 L 377.30 180.20 L 378.20 182.10 L 379.00 186.50 Z" fill="url(#radialGradient2)" fill-rule="evenodd" group-id="3" id="椭圆形备份-9" node-id="76" stroke="none" target-height="25" target-width="25" target-x="354" target-y="174"></path><path d="M 535.00 195.50 L 534.70 197.80 L 533.80 199.80 L 532.50 201.50 L 530.80 202.80 L 528.80 203.70 L 526.50 204.00 L 524.20 203.70 L 522.20 202.80 L 520.50 201.50 L 519.20 199.80 L 518.30 197.80 L 518.00 195.50 L 518.30 193.20 L 519.20 191.20 L 520.50 189.50 L 522.20 188.20 L 524.20 187.30 L 526.50 187.00 L 528.80 187.30 L 530.80 188.20 L 532.50 189.50 L 533.80 191.20 L 534.70 193.20 L 535.00 195.50 Z" fill="url(#radialGradient3)" fill-rule="evenodd" group-id="3" id="椭圆形备份-10" node-id="77" stroke="none" target-height="17" target-width="17" target-x="518" target-y="187"></path><path d="M 556.00 114.50 L 555.30 118.20 L 553.50 121.30 L 550.80 123.60 L 549.20 124.30 L 545.50 125.00 L 541.80 124.30 L 538.70 122.50 L 536.40 119.80 L 535.20 116.40 L 535.20 112.60 L 535.70 110.80 L 537.50 107.70 L 540.20 105.40 L 541.80 104.70 L 545.50 104.00 L 549.20 104.70 L 550.80 105.40 L 553.50 107.70 L 555.30 110.80 L 556.00 114.50 Z" fill="url(#radialGradient4)" fill-rule="evenodd" group-id="3" id="椭圆形备份-11" node-id="78" stroke="none" target-height="21" target-width="20.799988" target-x="535.2" target-y="104"></path><path d="M 700.00 217.00 L 699.80 219.40 L 699.20 221.50 L 696.90 225.40 L 693.60 228.20 L 691.50 229.20 L 689.40 229.80 L 687.00 230.00 L 684.60 229.80 L 682.50 229.20 L 678.60 226.90 L 675.80 223.60 L 674.20 219.40 L 674.00 217.00 L 674.20 214.60 L 674.80 212.50 L 677.10 208.60 L 680.40 205.80 L 682.50 204.80 L 687.00 204.00 L 689.40 204.20 L 691.50 204.80 L 693.60 205.80 L 696.90 208.60 L 699.20 212.50 L 699.80 214.60 L 700.00 217.00 Z" fill="url(#radialGradient5)" fill-rule="evenodd" group-id="3" id="椭圆形备份-12" node-id="79" stroke="none" target-height="26" target-width="26" target-x="674" target-y="204"></path><path d="M 820.00 420.00 L 819.80 422.40 L 819.20 424.50 L 818.20 426.60 L 815.40 429.90 L 811.50 432.20 L 809.40 432.80 L 807.00 433.00 L 804.60 432.80 L 802.50 432.20 L 798.60 429.90 L 795.80 426.60 L 794.20 422.40 L 794.00 420.00 L 794.20 417.60 L 794.80 415.50 L 797.10 411.60 L 800.40 408.80 L 802.50 407.80 L 807.00 407.00 L 809.40 407.20 L 811.50 407.80 L 815.40 410.10 L 818.20 413.40 L 819.20 415.50 L 820.00 420.00 Z" fill="url(#radialGradient6)" fill-rule="evenodd" group-id="3" id="椭圆形备份-13" node-id="80" stroke="none" target-height="26" target-width="26" target-x="794" target-y="407"></path><path d="M 732.00 600.00 L 731.20 604.50 L 728.90 608.40 L 725.60 611.20 L 723.50 612.20 L 719.00 613.00 L 716.60 612.80 L 714.50 612.20 L 710.60 609.90 L 707.80 606.60 L 706.80 604.50 L 706.20 602.40 L 706.00 600.00 L 706.20 597.60 L 706.80 595.50 L 709.10 591.60 L 712.40 588.80 L 714.50 587.80 L 716.60 587.20 L 719.00 587.00 L 721.40 587.20 L 723.50 587.80 L 727.40 590.10 L 730.20 593.40 L 731.20 595.50 L 732.00 600.00 Z" fill="url(#radialGradient7)" fill-rule="evenodd" group-id="3" id="椭圆形备份-14" node-id="81" stroke="none" target-height="26" target-width="26" target-x="706" target-y="587"></path><path d="M 284.00 598.00 L 283.80 600.40 L 283.20 602.50 L 280.90 606.40 L 277.60 609.20 L 275.50 610.20 L 273.40 610.80 L 271.00 611.00 L 268.60 610.80 L 266.50 610.20 L 262.60 607.90 L 259.80 604.60 L 258.80 602.50 L 258.20 600.40 L 258.00 598.00 L 258.20 595.60 L 258.80 593.50 L 261.10 589.60 L 264.40 586.80 L 266.50 585.80 L 271.00 585.00 L 275.50 585.80 L 279.40 588.10 L 282.20 591.40 L 283.20 593.50 L 284.00 598.00 Z" fill="url(#radialGradient8)" fill-rule="evenodd" group-id="3" id="椭圆形备份-15" node-id="82" stroke="none" target-height="26" target-width="26" target-x="258" target-y="585"></path><path d="M 793.00 859.00 L 792.70 861.90 L 792.00 864.60 L 790.80 867.10 L 789.20 869.30 L 787.30 871.20 L 785.10 872.80 L 782.60 874.00 L 779.90 874.70 L 777.00 875.00 L 774.10 874.70 L 771.40 874.00 L 768.90 872.80 L 766.70 871.20 L 764.80 869.30 L 763.20 867.10 L 762.00 864.60 L 761.30 861.90 L 761.00 859.00 L 761.30 856.10 L 762.00 853.40 L 763.20 850.90 L 764.80 848.70 L 766.70 846.80 L 768.90 845.20 L 771.40 844.00 L 774.10 843.30 L 777.00 843.00 L 779.90 843.30 L 782.60 844.00 L 785.10 845.20 L 787.30 846.80 L 789.20 848.70 L 790.80 850.90 L 792.00 853.40 L 792.70 856.10 L 793.00 859.00 Z" fill="url(#radialGradient-13)" fill-rule="evenodd" group-id="3" id="椭圆形备份-16" node-id="83" stroke="none" target-height="32" target-width="32" target-x="761" target-y="843"></path></g></svg>