<?xml version="1.0" standalone="no"?><!DOCTYPE svg PUBLIC "-//W3C//DTD SVG 1.1//EN" "http://www.w3.org/Graphics/SVG/1.1/DTD/svg11.dtd"><svg height="1024" node-id="1" sillyvg="true" template-height="1024" template-width="1024" version="1.1" viewBox="0 0 1024 1024" width="1024" xmlns="http://www.w3.org/2000/svg" xmlns:xlink="http://www.w3.org/1999/xlink"><defs node-id="83"><linearGradient gradientUnits="objectBoundingBox" id="linearGradient-1" node-id="5" spreadMethod="pad" x1="0.4964193" x2="0.2542505" y1="-0.110253885" y2="0.95625067"><stop offset="0" stop-color="#0589fa"></stop><stop offset="0.115437426" stop-color="#0064fd"></stop><stop offset="0.11597326" stop-color="#438eff"></stop><stop offset="0.32724255" stop-color="#438cfa"></stop><stop offset="0.4744294" stop-color="#60a0ff"></stop><stop offset="0.69246066" stop-color="#2086fe"></stop><stop offset="0.86282945" stop-color="#007dfe"></stop><stop offset="1" stop-color="#0a59dc"></stop></linearGradient><linearGradient gradientUnits="objectBoundingBox" id="linearGradient-2" node-id="14" spreadMethod="pad" x1="0.000000000000000021370923" x2="1" y1="0.45497262" y2="0.45497262"><stop offset="0" stop-color="#556bed"></stop><stop offset="0.35553563" stop-color="#2c82f4"></stop><stop offset="0.8170469" stop-color="#3e5ffb"></stop><stop offset="1" stop-color="#3d55ea" stop-opacity="0.9664281"></stop></linearGradient><linearGradient gradientUnits="objectBoundingBox" id="linearGradient-3" node-id="19" spreadMethod="pad" x1="0.29453582" x2="0.8189054" y1="0.19760361" y2="0.8906383"><stop offset="0" stop-color="#0ef1fd"></stop><stop offset="1" stop-color="#06defb" stop-opacity="0.10484047"></stop></linearGradient><linearGradient gradientUnits="objectBoundingBox" id="linearGradient-4" node-id="22" spreadMethod="pad" x1="0.5" x2="0.5" y1="0" y2="1"><stop offset="0" stop-color="#1f5fff" stop-opacity="0"></stop><stop offset="1" stop-color="#0d3aff" stop-opacity="0.3716401"></stop></linearGradient><linearGradient gradientUnits="objectBoundingBox" id="linearGradient-5" node-id="25" spreadMethod="pad" x1="0.5" x2="0.5" y1="0.25170276" y2="1"><stop offset="0" stop-color="#ffffff" stop-opacity="0"></stop><stop offset="1" stop-color="#92c5ff" stop-opacity="0.1981261"></stop></linearGradient><linearGradient gradientUnits="objectBoundingBox" id="linearGradient-6" node-id="28" spreadMethod="pad" x1="0.6329214" x2="0" y1="0.5" y2="0.5"><stop offset="0" stop-color="#3e65ff"></stop><stop offset="1" stop-color="#72f0ff"></stop></linearGradient><linearGradient gradientUnits="objectBoundingBox" id="linearGradient-7" node-id="31" spreadMethod="pad" x1="0.5" x2="0.5" y1="0.21499257" y2="1"><stop offset="0" stop-color="#ffffff" stop-opacity="0"></stop><stop offset="1" stop-color="#92c5ff" stop-opacity="0.1981261"></stop></linearGradient><linearGradient gradientUnits="objectBoundingBox" id="linearGradient-8" node-id="34" spreadMethod="pad" x1="-0.00000000000000004965646" x2="1" y1="0.48402488" y2="0.52472395"><stop offset="0" stop-color="#556bed"></stop><stop offset="0.22628002" stop-color="#2c82f4"></stop><stop offset="0.42540547" stop-color="#2b5ced"></stop><stop offset="0.60926175" stop-color="#6874ff"></stop><stop offset="0.7225545" stop-color="#3e5ffb"></stop><stop offset="0.80829084" stop-color="#3d55ea" stop-opacity="0.9664281"></stop><stop offset="0.9020706" stop-color="#4675ff"></stop><stop offset="1" stop-color="#9fe2fd"></stop></linearGradient><linearGradient gradientUnits="objectBoundingBox" id="linearGradient-9" node-id="43" spreadMethod="pad" x1="-0.00000000000000085831347" x2="0.39678994" y1="0.46769005" y2="0.46769005"><stop offset="0.00038243007" stop-color="#dcf2ff"></stop><stop offset="1" stop-color="#5cb3ff"></stop></linearGradient><radialGradient cx="0.5" cy="0.5" fx="0.5" fy="0.5" gradientUnits="objectBoundingBox" id="radialGradient-10" node-id="46" r="0.5" rev="11" spreadMethod="pad"><stop offset="0" stop-color="#00f6ff"></stop><stop offset="1" stop-color="#00fffe" stop-opacity="0"></stop></radialGradient><radialGradient cx="0.5" cy="0.5" fx="0.5" fy="0.5" gradientUnits="objectBoundingBox" id="radialGradient-11" node-id="49" r="0.43823937" rev="10" spreadMethod="pad"><stop offset="0" stop-color="#ffffff" stop-opacity="0.7709517"></stop><stop offset="1" stop-color="#ffffff" stop-opacity="0"></stop></radialGradient><radialGradient cx="0.5" cy="0.5" fx="0.5" fy="0.5" gradientUnits="objectBoundingBox" id="radialGradient1" node-id="179" r="0.364086" rev="9" spreadMethod="pad"><stop offset="0" stop-color="#ffffff"></stop><stop offset="1" stop-color="#006dff" stop-opacity="0"></stop></radialGradient><radialGradient cx="0.5" cy="0.5" fx="0.5" fy="0.5" gradientUnits="objectBoundingBox" id="radialGradient2" node-id="186" r="0.364086" rev="8" spreadMethod="pad"><stop offset="0" stop-color="#ffffff"></stop><stop offset="1" stop-color="#006dff" stop-opacity="0"></stop></radialGradient><radialGradient cx="0.5" cy="0.5" fx="0.5" fy="0.5" gradientUnits="objectBoundingBox" id="radialGradient3" node-id="193" r="0.364086" rev="7" spreadMethod="pad"><stop offset="0" stop-color="#ffffff"></stop><stop offset="1" stop-color="#006dff" stop-opacity="0"></stop></radialGradient><radialGradient cx="0.5" cy="0.5" fx="0.5" fy="0.5" gradientUnits="objectBoundingBox" id="radialGradient4" node-id="200" r="0.364086" rev="6" spreadMethod="pad"><stop offset="0" stop-color="#ffffff"></stop><stop offset="1" stop-color="#006dff" stop-opacity="0"></stop></radialGradient><radialGradient cx="0.5" cy="0.5" fx="0.5" fy="0.5" gradientUnits="objectBoundingBox" id="radialGradient5" node-id="207" r="0.364086" rev="5" spreadMethod="pad"><stop offset="0" stop-color="#ffffff"></stop><stop offset="1" stop-color="#006dff" stop-opacity="0"></stop></radialGradient><radialGradient cx="0.5" cy="0.5" fx="0.5" fy="0.5" gradientUnits="objectBoundingBox" id="radialGradient6" node-id="214" r="0.364086" rev="4" spreadMethod="pad"><stop offset="0" stop-color="#ffffff"></stop><stop offset="1" stop-color="#006dff" stop-opacity="0"></stop></radialGradient><radialGradient cx="0.5" cy="0.5" fx="0.5" fy="0.5" gradientUnits="objectBoundingBox" id="radialGradient7" node-id="221" r="0.364086" rev="3" spreadMethod="pad"><stop offset="0" stop-color="#ffffff"></stop><stop offset="1" stop-color="#006dff" stop-opacity="0"></stop></radialGradient><radialGradient cx="0.5" cy="0.5" fx="0.5" fy="0.5" gradientUnits="objectBoundingBox" id="radialGradient8" node-id="228" r="0.364086" rev="2" spreadMethod="pad"><stop offset="0" stop-color="#ffffff"></stop><stop offset="1" stop-color="#006dff" stop-opacity="0"></stop></radialGradient><radialGradient cx="0.5" cy="0.5" fx="0.5" fy="0.5" gradientUnits="objectBoundingBox" id="radialGradient-12" node-id="52" r="0.364086" rev="1" spreadMethod="pad"><stop offset="0" stop-color="#ffffff"></stop><stop offset="1" stop-color="#006dff" stop-opacity="0"></stop></radialGradient></defs><path d="M 0.00 0.00 L 1024.00 0.00 L 1024.00 1024.00 L 0.00 1024.00 Z" fill="#080d23" fill-opacity="0" fill-rule="nonzero" node-id="243" stroke="none" target-height="1024" target-width="1024" target-x="0" target-y="0"></path><path d="M 496.00 234.70 L 466.50 243.90 L 466.50 402.20 L 653.00 387.70 L 717.00 402.50 L 648.50 430.20 L 646.10 440.00 L 643.40 449.60 L 640.20 458.90 L 636.50 468.10 L 632.50 477.10 L 628.00 485.90 L 623.10 494.40 L 617.90 502.70 L 612.30 510.70 L 606.40 518.50 L 600.10 526.00 L 593.50 533.10 L 586.60 540.00 L 579.30 546.50 L 571.80 552.70 L 564.00 558.50 L 556.00 563.90 L 547.70 569.00 L 539.20 573.60 L 530.50 577.90 L 521.50 581.70 L 512.40 585.00 L 503.10 587.90 L 493.60 590.30 L 483.80 592.30 L 485.00 606.30 L 410.40 590.00 L 400.60 587.30 L 391.20 584.00 L 382.00 580.20 L 373.00 575.90 L 364.40 571.10 L 356.10 565.80 L 348.20 560.00 L 340.50 553.80 L 333.30 547.10 L 326.40 540.10 L 319.90 532.60 L 313.90 524.70 L 308.30 516.50 L 303.20 507.80 L 298.50 498.80 L 294.30 489.60 L 290.60 480.10 L 287.50 470.20 L 284.80 459.90 L 282.70 449.60 L 281.20 439.00 L 280.30 428.00 L 280.00 416.80 L 280.30 405.40 L 281.30 394.20 L 282.80 383.20 L 284.90 372.30 L 287.60 361.60 L 290.90 351.10 L 294.70 340.80 L 299.00 330.80 L 303.80 320.90 L 309.00 311.40 L 314.80 302.20 L 321.00 293.40 L 327.60 284.80 L 334.60 276.60 L 342.00 268.80 L 349.90 261.30 L 358.00 254.30 L 366.50 247.70 L 375.30 241.60 L 384.50 235.90 L 393.90 230.80 L 403.60 226.10 L 413.50 222.00 L 423.70 218.40 L 434.10 215.40 L 444.70 213.00 L 455.50 211.20 L 466.50 210.00 L 496.00 216.50 L 496.00 177.60 L 506.10 177.10 L 515.90 177.10 L 525.60 177.70 L 535.00 178.70 L 544.30 180.30 L 606.50 194.00 L 600.90 202.80 L 608.10 207.60 L 615.00 212.80 L 621.70 218.30 L 628.10 224.20 L 634.20 230.40 L 640.00 236.90 L 645.40 243.70 L 650.50 250.80 L 655.30 258.20 L 659.80 265.90 L 663.80 273.80 L 667.50 282.00 L 670.80 290.40 L 673.70 299.10 L 676.20 308.10 L 678.30 317.10 L 679.90 326.30 L 681.00 335.80 L 681.70 345.50 L 682.00 355.40 L 574.60 363.80 L 560.00 384.00 L 496.00 370.00 L 496.00 234.70 Z" fill="url(#linearGradient-1)" fill-rule="nonzero" id="形状结合" node-id="57" stroke="none" target-height="429.19998" target-width="437" target-x="280" target-y="177.1"></path><path d="M 530.50 224.00 L 519.50 225.20 L 508.70 227.00 L 498.10 229.40 L 487.70 232.40 L 477.50 236.00 L 467.60 240.10 L 457.90 244.80 L 448.50 249.90 L 439.30 255.60 L 430.50 261.70 L 422.00 268.30 L 413.90 275.30 L 406.00 282.80 L 398.60 290.60 L 391.60 298.80 L 385.00 307.40 L 378.80 316.20 L 373.00 325.40 L 367.80 334.90 L 363.00 344.80 L 358.70 354.80 L 354.90 365.10 L 351.60 375.60 L 348.90 386.30 L 346.80 397.20 L 345.30 408.20 L 344.30 419.40 L 344.00 430.80 L 344.30 441.50 L 345.10 451.90 L 346.50 461.90 L 348.30 471.80 L 350.70 481.40 L 353.60 490.90 L 356.90 500.10 L 360.60 509.00 L 364.80 517.50 L 369.50 525.80 L 374.60 533.90 L 380.00 541.50 L 385.90 548.90 L 392.00 555.80 L 398.60 562.40 L 405.60 568.70 L 412.80 574.50 L 420.30 579.90 L 428.20 584.90 L 436.40 589.50 L 444.80 593.70 L 453.40 597.30 L 462.30 600.50 L 471.50 603.20 L 480.90 605.40 L 490.40 607.10 L 500.10 608.30 L 510.00 608.90 L 520.10 608.90 L 530.50 608.40 L 541.50 607.20 L 552.30 605.40 L 562.90 603.00 L 573.30 600.00 L 583.50 596.40 L 593.40 592.30 L 603.10 587.70 L 612.50 582.50 L 621.70 576.80 L 630.50 570.70 L 639.00 564.10 L 647.10 557.10 L 655.00 549.70 L 662.40 541.90 L 669.40 533.70 L 676.00 525.10 L 682.20 516.20 L 688.00 507.00 L 693.20 497.50 L 698.00 487.70 L 702.30 477.60 L 706.10 467.40 L 709.40 456.90 L 712.10 446.10 L 714.20 435.30 L 715.70 424.30 L 716.70 413.10 L 717.00 401.70 L 530.50 416.20 L 530.50 224.00 Z M 560.00 191.60 L 560.00 384.00 L 746.00 369.40 L 745.70 358.70 L 744.90 348.30 L 743.50 338.20 L 741.70 328.40 L 739.40 318.80 L 736.50 309.20 L 733.20 300.00 L 729.40 291.20 L 725.20 282.60 L 720.60 274.30 L 715.50 266.20 L 710.10 258.50 L 704.30 251.20 L 698.10 244.20 L 691.50 237.60 L 684.60 231.40 L 677.40 225.50 L 669.90 220.10 L 662.00 215.10 L 653.90 210.50 L 645.50 206.30 L 636.90 202.70 L 628.00 199.50 L 618.90 196.80 L 609.40 194.60 L 600.00 192.90 L 590.30 191.70 L 580.50 191.10 L 570.40 191.10 L 560.00 191.60 Z" fill="url(#linearGradient-2)" fill-rule="nonzero" id="形状" node-id="58" stroke="none" target-height="417.80002" target-width="402" target-x="344" target-y="191.1"></path><path d="M 532.00 222.40 L 532.00 414.60 L 718.50 400.00 L 718.50 401.70 L 718.20 413.10 L 717.20 424.40 L 715.70 435.50 L 713.50 446.50 L 710.80 457.30 L 707.50 467.90 L 703.70 478.20 L 699.40 488.30 L 694.60 498.20 L 689.20 507.80 L 683.50 517.00 L 677.20 526.00 L 670.50 534.60 L 663.50 542.90 L 656.00 550.70 L 648.10 558.20 L 639.90 565.30 L 631.30 571.90 L 622.50 578.10 L 613.30 583.80 L 603.80 589.00 L 594.00 593.70 L 584.00 597.80 L 573.70 601.50 L 563.20 604.50 L 552.60 606.90 L 541.70 608.70 L 530.60 609.90 L 520.10 610.40 L 509.90 610.40 L 499.90 609.80 L 490.20 608.60 L 480.60 606.90 L 471.10 604.70 L 461.80 601.90 L 452.90 598.70 L 444.10 595.00 L 435.70 590.90 L 427.40 586.20 L 419.50 581.20 L 411.90 575.70 L 404.60 569.80 L 397.60 563.50 L 391.00 556.90 L 384.70 549.80 L 378.80 542.50 L 373.30 534.70 L 368.20 526.60 L 363.50 518.20 L 359.30 509.60 L 355.50 500.70 L 352.10 491.40 L 349.20 481.80 L 346.90 472.10 L 345.00 462.20 L 343.60 452.00 L 342.80 441.60 L 342.50 430.80 L 342.80 419.30 L 343.80 408.00 L 345.30 396.90 L 347.50 386.00 L 350.20 375.20 L 353.50 364.60 L 357.30 354.20 L 361.60 344.10 L 366.40 334.20 L 371.80 324.70 L 377.50 315.40 L 383.80 306.50 L 390.50 297.80 L 397.50 289.60 L 405.00 281.70 L 412.90 274.20 L 421.10 267.10 L 429.70 260.50 L 438.50 254.30 L 447.70 248.60 L 457.20 243.40 L 467.00 238.70 L 477.00 234.60 L 487.30 231.00 L 497.80 228.00 L 508.40 225.50 L 519.30 223.70 L 532.00 222.40 Z M 529.00 225.60 L 516.80 227.10 L 506.20 229.00 L 495.90 231.60 L 485.70 234.60 L 475.80 238.30 L 466.00 242.50 L 456.60 247.10 L 447.40 252.30 L 438.50 258.00 L 429.90 264.10 L 421.60 270.60 L 413.60 277.60 L 406.00 285.00 L 398.70 292.70 L 391.90 300.80 L 385.40 309.30 L 379.40 318.10 L 373.80 327.10 L 368.70 336.50 L 364.00 346.20 L 359.80 356.10 L 356.10 366.20 L 352.90 376.50 L 350.30 387.10 L 348.20 397.70 L 346.70 408.60 L 345.80 419.60 L 345.50 430.80 L 345.80 441.40 L 346.60 451.70 L 347.90 461.70 L 349.80 471.40 L 352.10 480.90 L 355.00 490.40 L 358.30 499.50 L 362.00 508.30 L 366.10 516.80 L 370.70 525.00 L 375.80 533.00 L 381.20 540.60 L 387.00 547.90 L 393.10 554.80 L 399.60 561.30 L 406.50 567.50 L 413.70 573.30 L 421.20 578.70 L 429.00 583.60 L 437.10 588.20 L 445.40 592.30 L 454.00 595.90 L 462.80 599.10 L 471.90 601.80 L 481.20 604.00 L 490.60 605.60 L 500.20 606.80 L 510.00 607.40 L 520.10 607.40 L 530.40 606.90 L 541.30 605.80 L 552.00 604.00 L 562.50 601.60 L 572.80 598.60 L 583.00 595.00 L 592.80 590.90 L 602.40 586.30 L 611.80 581.20 L 620.90 575.60 L 629.60 569.50 L 638.00 563.00 L 646.20 556.00 L 653.90 548.60 L 661.30 540.80 L 668.20 532.70 L 674.80 524.20 L 681.00 515.40 L 686.70 506.20 L 691.90 496.80 L 696.70 487.10 L 701.00 477.10 L 704.70 466.90 L 707.90 456.50 L 710.60 445.80 L 712.70 435.00 L 714.20 424.10 L 715.20 413.00 L 715.50 401.70 L 715.50 403.30 L 529.00 417.80 L 529.00 225.60 Z M 559.90 190.10 L 570.30 189.60 L 580.50 189.60 L 590.50 190.20 L 600.20 191.40 L 609.80 193.10 L 619.30 195.30 L 628.50 198.10 L 637.40 201.30 L 646.10 205.00 L 654.60 209.20 L 662.80 213.80 L 670.70 218.90 L 678.30 224.30 L 685.60 230.20 L 692.50 236.50 L 699.20 243.20 L 705.40 250.20 L 711.30 257.60 L 716.80 265.40 L 721.90 273.50 L 726.50 281.90 L 730.80 290.50 L 734.50 299.50 L 737.90 308.80 L 740.80 318.40 L 743.20 328.00 L 745.00 338.00 L 746.40 348.20 L 747.20 358.60 L 747.50 370.80 L 558.50 385.60 L 558.50 190.20 L 559.90 190.10 Z M 744.50 366.30 L 744.00 355.80 L 743.10 345.70 L 741.60 335.80 L 739.70 326.20 L 737.30 316.80 L 734.30 307.50 L 731.00 298.60 L 727.20 289.90 L 723.00 281.50 L 718.40 273.50 L 713.30 265.60 L 707.90 258.10 L 702.10 251.00 L 696.00 244.20 L 689.50 237.80 L 682.70 231.70 L 675.50 226.00 L 668.10 220.70 L 660.40 215.90 L 652.40 211.40 L 644.10 207.40 L 635.60 203.80 L 626.90 200.70 L 617.90 198.10 L 608.70 195.90 L 599.40 194.30 L 589.90 193.20 L 580.20 192.60 L 570.30 192.60 L 560.10 193.10 L 561.50 193.00 L 561.50 382.40 L 744.50 368.00 L 744.50 366.30 Z" fill="url(#linearGradient-3)" fill-rule="nonzero" id="形状" node-id="59" stroke="none" target-height="420.80002" target-width="405" target-x="342.5" target-y="189.6"></path><g node-id="245"><path d="M 138.60 406.40 L 883.60 406.40 L 778.70 731.60 L 243.50 731.60 Z" fill="url(#linearGradient-4)" fill-rule="evenodd" group-id="1" id="矩形" node-id="61" stroke="none" target-height="325.19998" target-width="745" target-x="138.6" target-y="406.4"></path><path d="M 511.60 604.80 L 563.10 605.40 L 587.50 606.10 L 635.10 608.30 L 679.20 611.40 L 718.60 615.30 L 737.60 617.60 L 769.90 622.60 L 785.10 625.60 L 798.00 628.50 L 808.90 631.40 L 817.30 634.10 L 824.10 636.60 L 829.60 639.10 L 833.80 641.40 L 837.40 643.90 L 839.80 646.20 L 841.40 648.30 L 842.30 650.30 L 842.60 652.30 L 842.30 654.30 L 841.40 656.40 L 839.80 658.50 L 837.40 660.80 L 833.80 663.20 L 829.60 665.60 L 824.10 668.00 L 817.30 670.60 L 808.90 673.20 L 798.00 676.10 L 785.10 679.10 L 769.90 682.00 L 754.60 684.60 L 737.60 687.00 L 699.60 691.40 L 657.20 695.00 L 611.90 697.60 L 587.50 698.60 L 537.80 699.70 L 485.40 699.70 L 460.10 699.30 L 411.30 697.60 L 366.00 695.00 L 344.00 693.30 L 304.60 689.40 L 285.60 687.00 L 253.30 682.00 L 238.10 679.10 L 225.10 676.10 L 214.20 673.20 L 205.90 670.60 L 199.10 668.00 L 193.60 665.60 L 189.30 663.20 L 185.80 660.80 L 183.40 658.50 L 181.80 656.40 L 180.90 654.30 L 180.60 652.30 L 180.90 650.30 L 181.80 648.30 L 183.40 646.20 L 185.80 643.90 L 189.30 641.40 L 193.60 639.10 L 199.10 636.60 L 205.90 634.10 L 214.20 631.40 L 225.10 628.50 L 238.10 625.60 L 253.30 622.60 L 268.60 620.10 L 285.60 617.60 L 323.50 613.20 L 344.00 611.40 L 388.00 608.30 L 435.70 606.10 L 460.10 605.40 L 511.60 604.80 Z M 511.60 610.80 L 478.40 611.10 L 446.40 611.80 L 414.70 612.90 L 384.70 614.50 L 355.40 616.50 L 328.20 618.80 L 301.90 621.60 L 278.40 624.70 L 263.40 627.00 L 238.30 631.60 L 226.60 634.30 L 208.50 639.50 L 200.60 642.50 L 194.80 645.20 L 190.80 647.70 L 188.50 649.50 L 187.20 650.90 L 186.60 652.30 L 187.20 653.70 L 188.50 655.20 L 190.80 657.00 L 194.80 659.40 L 200.60 662.10 L 208.50 665.10 L 226.60 670.30 L 238.30 673.00 L 263.40 677.70 L 278.40 680.00 L 301.90 683.10 L 328.20 685.90 L 355.40 688.20 L 384.70 690.20 L 414.70 691.80 L 446.40 692.90 L 478.40 693.60 L 511.60 693.80 L 544.70 693.60 L 576.80 692.90 L 608.50 691.80 L 638.40 690.20 L 667.80 688.20 L 694.90 685.90 L 721.20 683.10 L 744.80 680.00 L 759.70 677.70 L 784.80 673.00 L 796.60 670.30 L 814.60 665.10 L 822.60 662.10 L 828.40 659.40 L 832.40 657.00 L 834.70 655.20 L 836.00 653.70 L 836.60 652.30 L 836.00 650.90 L 834.70 649.50 L 832.40 647.70 L 828.40 645.20 L 822.60 642.50 L 814.60 639.50 L 796.60 634.30 L 784.80 631.60 L 759.70 627.00 L 744.80 624.70 L 721.20 621.60 L 694.90 618.80 L 667.80 616.50 L 638.40 614.50 L 608.50 612.90 L 576.80 611.80 L 544.70 611.10 L 511.60 610.80 Z" fill="url(#linearGradient-5)" fill-rule="nonzero" group-id="1" id="椭圆形备份-3" node-id="62" stroke="none" target-height="94.900024" target-width="662" target-x="180.6" target-y="604.8"></path><g node-id="247"><path d="M 124.20 852.80 L 318.30 797.00 L 704.40 797.00 L 900.20 852.80 L 704.40 901.00 L 318.30 901.00 Z" fill="#001d69" fill-opacity="0.3005354" fill-rule="evenodd" group-id="1,3" id="多边形备份" node-id="63" stroke="none" target-height="104" target-width="776" target-x="124.2" target-y="797"></path></g><g node-id="248"><path d="M 122.00 848.30 L 316.80 791.20 L 318.30 791.00 L 704.40 791.00 L 706.00 791.20 L 902.20 847.40 L 903.60 848.00 L 905.60 849.80 L 906.40 851.60 L 906.70 853.60 L 906.40 855.60 L 905.60 857.40 L 903.60 859.20 L 902.30 859.80 L 704.40 907.00 L 318.30 907.00 L 122.00 859.80 L 120.60 859.30 L 118.70 857.60 L 117.80 855.90 L 117.50 854.00 L 117.80 852.20 L 118.70 850.50 L 120.60 848.80 L 122.00 848.30 Z M 123.50 854.00 L 318.30 901.00 L 704.40 901.00 L 900.70 853.90 L 704.40 797.00 L 318.30 797.00 L 123.50 854.00 Z" fill="url(#linearGradient-6)" fill-rule="nonzero" group-id="1,4" id="多边形备份" node-id="64" stroke="none" target-height="116" target-width="789.2" target-x="117.5" target-y="791"></path></g><g node-id="249"><path d="M 123.50 854.00 L 312.80 800.00 L 700.00 797.00 L 900.20 854.00 L 699.90 901.00 L 312.80 901.00 Z" fill="#001d69" fill-opacity="0.3005354" fill-rule="evenodd" group-id="1,5" id="多边形备份-3" node-id="65" stroke="none" target-height="104" target-width="776.7" target-x="123.5" target-y="797"></path></g><path d="M 511.10 563.30 L 552.10 563.60 L 591.00 564.40 L 629.10 565.70 L 664.30 567.50 L 698.50 569.80 L 729.10 572.40 L 749.00 574.40 L 783.00 578.80 L 799.10 581.30 L 812.70 583.90 L 833.00 588.70 L 845.90 593.10 L 850.40 595.10 L 854.20 597.30 L 856.80 599.30 L 858.40 601.10 L 859.30 602.90 L 859.60 604.50 L 859.30 606.20 L 858.40 607.90 L 856.80 609.80 L 854.20 611.80 L 850.40 614.00 L 845.90 616.00 L 833.00 620.40 L 812.70 625.20 L 799.10 627.80 L 783.00 630.30 L 749.00 634.70 L 729.10 636.70 L 698.50 639.30 L 664.30 641.60 L 629.10 643.30 L 591.00 644.70 L 552.10 645.50 L 511.10 645.80 L 470.10 645.50 L 431.20 644.70 L 393.10 643.30 L 357.80 641.60 L 323.70 639.30 L 293.10 636.70 L 273.20 634.70 L 239.10 630.30 L 223.10 627.80 L 209.50 625.20 L 189.20 620.40 L 176.30 616.00 L 171.80 614.00 L 168.00 611.80 L 165.40 609.80 L 163.80 607.90 L 162.90 606.20 L 162.60 604.50 L 162.90 602.90 L 163.80 601.10 L 165.40 599.30 L 168.00 597.30 L 171.80 595.10 L 176.30 593.10 L 189.20 588.70 L 209.50 583.90 L 223.10 581.30 L 239.10 578.80 L 273.20 574.40 L 293.10 572.40 L 323.70 569.80 L 357.80 567.50 L 393.10 565.70 L 431.20 564.40 L 470.10 563.60 L 511.10 563.30 Z M 511.10 569.30 L 476.10 569.50 L 442.40 570.10 L 409.00 571.10 L 377.40 572.50 L 346.50 574.20 L 317.90 576.20 L 290.20 578.70 L 265.40 581.30 L 242.40 584.30 L 223.10 587.40 L 210.70 589.70 L 191.60 594.30 L 183.10 596.90 L 176.90 599.30 L 172.70 601.40 L 170.20 603.00 L 168.70 604.50 L 170.20 606.00 L 172.70 607.60 L 176.90 609.80 L 183.10 612.20 L 191.60 614.80 L 200.30 617.00 L 223.10 621.70 L 242.40 624.70 L 265.40 627.70 L 290.20 630.40 L 317.90 632.80 L 346.50 634.90 L 377.40 636.60 L 409.00 638.00 L 442.40 638.90 L 476.10 639.50 L 511.10 639.80 L 546.00 639.50 L 579.80 638.90 L 613.10 638.00 L 644.70 636.60 L 675.70 634.90 L 704.30 632.80 L 732.00 630.40 L 756.80 627.70 L 779.80 624.70 L 799.10 621.70 L 811.50 619.30 L 830.60 614.80 L 839.10 612.20 L 845.20 609.80 L 849.50 607.60 L 851.90 606.00 L 853.50 604.50 L 851.90 603.00 L 849.50 601.40 L 845.20 599.30 L 839.10 596.90 L 830.60 594.30 L 811.50 589.70 L 799.10 587.40 L 779.80 584.30 L 756.80 581.30 L 732.00 578.70 L 704.30 576.20 L 675.70 574.20 L 644.70 572.50 L 613.10 571.10 L 579.80 570.10 L 546.00 569.50 L 511.10 569.30 Z" fill="url(#linearGradient-7)" fill-rule="nonzero" group-id="1" id="椭圆形备份-4" node-id="66" stroke="none" target-height="82.5" target-width="697" target-x="162.6" target-y="563.3"></path><path d="M 826.00 732.00 L 826.00 837.00 L 668.80 871.90 L 354.30 871.90 L 197.00 837.00 L 197.00 732.00 L 826.00 732.00 Z" fill="url(#linearGradient-8)" fill-rule="evenodd" group-id="1" id="形状结合" node-id="67" stroke="none" target-height="139.90002" target-width="629" target-x="197" target-y="732"></path><g node-id="250"><path d="M 204.00 731.70 L 358.00 696.70 L 664.00 696.70 L 819.00 732.00 L 664.00 766.90 L 358.00 766.90 Z" fill="#2a64f6" fill-rule="evenodd" group-id="1,6" id="多边形" node-id="68" stroke="none" target-height="70.20001" target-width="615" target-x="204" target-y="696.7"></path></g><g node-id="251"><path d="M 202.40 724.90 L 358.00 689.70 L 664.00 689.70 L 820.60 725.20 L 823.60 726.70 L 824.60 727.80 L 825.80 730.50 L 825.80 733.50 L 825.40 734.90 L 823.60 737.30 L 822.30 738.20 L 820.50 738.80 L 664.00 773.90 L 358.00 773.90 L 202.40 738.60 L 200.70 738.00 L 198.40 736.00 L 197.60 734.60 L 197.00 731.70 L 197.60 728.80 L 198.40 727.50 L 200.70 725.50 L 202.40 724.90 Z M 204.00 731.70 L 358.00 766.90 L 664.00 766.90 L 819.00 732.00 L 664.00 696.70 L 358.00 696.70 L 204.00 731.70 Z" fill="url(#linearGradient-9)" fill-rule="nonzero" group-id="1,7" id="多边形" node-id="69" stroke="none" target-height="84.20001" target-width="628.8" target-x="197" target-y="689.7"></path></g><path d="M 511.00 768.00 L 568.40 767.30 L 623.90 765.10 L 675.70 761.80 L 700.00 759.60 L 722.00 757.30 L 743.10 754.70 L 761.20 752.00 L 772.80 749.90 L 791.30 745.80 L 799.70 743.40 L 806.00 741.10 L 810.70 739.00 L 815.40 735.80 L 817.30 733.00 L 817.50 731.80 L 817.30 730.50 L 816.60 729.10 L 813.50 726.20 L 810.60 724.50 L 806.00 722.40 L 799.60 720.10 L 791.20 717.80 L 772.70 713.70 L 742.90 709.00 L 721.80 706.30 L 699.80 704.10 L 650.30 700.20 L 596.30 697.50 L 539.40 696.00 L 481.60 696.00 L 425.10 697.50 L 371.60 700.20 L 322.70 704.10 L 301.00 706.30 L 280.20 709.00 L 262.40 711.70 L 241.10 715.70 L 224.50 720.10 L 218.30 722.40 L 213.70 724.50 L 210.90 726.20 L 209.10 727.70 L 207.90 729.10 L 207.20 730.50 L 207.00 731.80 L 207.90 734.40 L 211.00 737.30 L 213.70 739.00 L 218.30 741.10 L 224.60 743.40 L 232.80 745.80 L 251.00 749.90 L 262.60 752.00 L 280.40 754.70 L 301.20 757.30 L 323.00 759.60 L 347.10 761.80 L 398.50 765.10 L 453.70 767.30 L 511.00 768.00 Z" fill="url(#radialGradient-10)" fill-rule="evenodd" group-id="1" id="椭圆形备份-17" node-id="70" stroke="none" target-height="72" target-width="610.5" target-x="207" target-y="696"></path><path d="M 644.60 730.90 L 644.30 732.00 L 643.50 733.20 L 641.80 734.50 L 638.90 735.90 L 634.40 737.60 L 627.60 739.40 L 618.10 741.30 L 605.50 743.20 L 592.60 744.70 L 562.40 747.00 L 528.80 748.20 L 511.10 748.30 L 493.40 748.20 L 459.80 747.00 L 429.60 744.70 L 416.70 743.20 L 404.00 741.30 L 394.60 739.40 L 387.70 737.60 L 383.20 735.90 L 380.40 734.50 L 378.70 733.20 L 377.90 732.00 L 377.60 730.90 L 377.90 729.80 L 378.70 728.70 L 380.40 727.40 L 383.20 725.90 L 387.70 724.30 L 394.60 722.40 L 404.00 720.50 L 416.70 718.60 L 429.60 717.10 L 459.80 714.80 L 493.40 713.70 L 511.10 713.50 L 528.80 713.70 L 562.40 714.80 L 592.60 717.10 L 605.50 718.60 L 618.10 720.50 L 627.60 722.40 L 634.40 724.30 L 638.90 725.90 L 641.80 727.40 L 643.50 728.70 L 644.30 729.80 L 644.60 730.90 Z" fill="url(#radialGradient-11)" fill-rule="evenodd" group-id="1" id="椭圆形备份-18" node-id="71" stroke="none" target-height="34.799988" target-width="266.99997" target-x="377.6" target-y="713.5"></path></g><g node-id="246"><path d="M 258.00 399.50 L 257.70 402.50 L 257.00 405.30 L 255.70 407.80 L 254.10 410.10 L 252.10 412.10 L 249.80 413.70 L 247.30 415.00 L 244.50 415.70 L 241.50 416.00 L 238.50 415.70 L 235.70 415.00 L 233.20 413.70 L 230.90 412.10 L 228.90 410.10 L 227.30 407.80 L 226.00 405.30 L 225.30 402.50 L 225.00 399.50 L 225.30 396.50 L 226.00 393.70 L 227.30 391.20 L 228.90 388.90 L 230.90 386.90 L 233.20 385.30 L 235.70 384.00 L 238.50 383.30 L 241.50 383.00 L 244.50 383.30 L 247.30 384.00 L 249.80 385.30 L 252.10 386.90 L 254.10 388.90 L 255.70 391.20 L 257.00 393.70 L 257.70 396.50 L 258.00 399.50 Z" fill="url(#radialGradient1)" fill-rule="evenodd" group-id="2" id="椭圆形" node-id="73" stroke="none" target-height="33" target-width="33" target-x="225" target-y="383"></path><path d="M 354.00 195.50 L 353.20 199.90 L 351.10 203.60 L 347.80 206.30 L 345.90 207.20 L 341.50 208.00 L 337.10 207.20 L 333.40 205.10 L 330.70 201.80 L 329.20 197.80 L 329.00 195.50 L 329.20 193.20 L 329.80 191.10 L 331.90 187.40 L 335.20 184.70 L 337.10 183.80 L 341.50 183.00 L 345.90 183.80 L 347.80 184.70 L 351.10 187.40 L 353.20 191.10 L 354.00 195.50 Z" fill="url(#radialGradient2)" fill-rule="evenodd" group-id="2" id="椭圆形备份-9" node-id="74" stroke="none" target-height="25" target-width="25" target-x="329" target-y="183"></path><path d="M 478.00 164.50 L 477.70 166.80 L 476.80 168.80 L 475.50 170.50 L 473.80 171.80 L 471.80 172.70 L 469.50 173.00 L 467.20 172.70 L 465.20 171.80 L 463.50 170.50 L 462.20 168.80 L 461.30 166.80 L 461.00 164.50 L 461.30 162.20 L 462.20 160.20 L 463.50 158.50 L 465.20 157.20 L 467.20 156.30 L 469.50 156.00 L 471.80 156.30 L 473.80 157.20 L 475.50 158.50 L 476.80 160.20 L 477.70 162.20 L 478.00 164.50 Z" fill="url(#radialGradient3)" fill-rule="evenodd" group-id="2" id="椭圆形备份-10" node-id="75" stroke="none" target-height="17" target-width="17" target-x="461" target-y="156"></path><path d="M 562.00 87.50 L 561.30 91.20 L 559.50 94.30 L 556.80 96.60 L 555.20 97.30 L 551.50 98.00 L 547.80 97.30 L 546.20 96.60 L 543.50 94.30 L 541.70 91.20 L 541.00 87.50 L 541.70 83.80 L 543.50 80.70 L 546.20 78.40 L 547.80 77.70 L 551.50 77.00 L 555.20 77.70 L 558.30 79.50 L 560.60 82.20 L 561.30 83.80 L 562.00 87.50 Z" fill="url(#radialGradient4)" fill-rule="evenodd" group-id="2" id="椭圆形备份-11" node-id="76" stroke="none" target-height="21" target-width="21" target-x="541" target-y="77"></path><path d="M 719.00 208.00 L 718.80 210.40 L 718.20 212.50 L 717.20 214.60 L 714.40 217.90 L 710.50 220.20 L 706.00 221.00 L 703.60 220.80 L 701.50 220.20 L 697.60 217.90 L 694.80 214.60 L 693.20 210.40 L 693.00 208.00 L 693.20 205.60 L 693.80 203.50 L 696.10 199.60 L 699.40 196.80 L 701.50 195.80 L 703.60 195.20 L 706.00 195.00 L 708.40 195.20 L 710.50 195.80 L 712.60 196.80 L 715.90 199.60 L 718.20 203.50 L 719.00 208.00 Z" fill="url(#radialGradient5)" fill-rule="evenodd" group-id="2" id="椭圆形备份-12" node-id="77" stroke="none" target-height="26" target-width="26" target-x="693" target-y="195"></path><path d="M 820.00 429.00 L 819.80 431.40 L 819.20 433.50 L 818.20 435.60 L 815.40 438.90 L 811.50 441.20 L 809.40 441.80 L 807.00 442.00 L 802.50 441.20 L 798.60 438.90 L 795.80 435.60 L 794.80 433.50 L 794.20 431.40 L 794.00 429.00 L 794.20 426.60 L 794.80 424.50 L 797.10 420.60 L 800.40 417.80 L 802.50 416.80 L 807.00 416.00 L 809.40 416.20 L 811.50 416.80 L 813.60 417.80 L 816.90 420.60 L 819.20 424.50 L 819.80 426.60 L 820.00 429.00 Z" fill="url(#radialGradient6)" fill-rule="evenodd" group-id="2" id="椭圆形备份-13" node-id="78" stroke="none" target-height="26" target-width="26" target-x="794" target-y="416"></path><path d="M 732.00 609.00 L 731.20 613.50 L 728.90 617.40 L 725.60 620.20 L 723.50 621.20 L 721.40 621.80 L 719.00 622.00 L 716.60 621.80 L 714.50 621.20 L 710.60 618.90 L 707.80 615.60 L 706.80 613.50 L 706.20 611.40 L 706.00 609.00 L 706.20 606.60 L 706.80 604.50 L 709.10 600.60 L 712.40 597.80 L 714.50 596.80 L 719.00 596.00 L 723.50 596.80 L 727.40 599.10 L 730.20 602.40 L 731.20 604.50 L 732.00 609.00 Z" fill="url(#radialGradient7)" fill-rule="evenodd" group-id="2" id="椭圆形备份-14" node-id="79" stroke="none" target-height="26" target-width="26" target-x="706" target-y="596"></path><path d="M 284.00 607.00 L 283.20 611.50 L 280.90 615.40 L 277.60 618.20 L 275.50 619.20 L 273.40 619.80 L 271.00 620.00 L 268.60 619.80 L 266.50 619.20 L 262.60 616.90 L 259.80 613.60 L 258.80 611.50 L 258.20 609.40 L 258.00 607.00 L 258.20 604.60 L 258.80 602.50 L 261.10 598.60 L 264.40 595.80 L 266.50 594.80 L 268.60 594.20 L 271.00 594.00 L 275.50 594.80 L 279.40 597.10 L 282.20 600.40 L 283.20 602.50 L 283.80 604.60 L 284.00 607.00 Z" fill="url(#radialGradient8)" fill-rule="evenodd" group-id="2" id="椭圆形备份-15" node-id="80" stroke="none" target-height="26" target-width="26" target-x="258" target-y="594"></path><path d="M 793.00 868.00 L 792.70 870.90 L 792.00 873.60 L 790.80 876.10 L 789.20 878.30 L 787.30 880.20 L 785.10 881.80 L 782.60 883.00 L 779.90 883.70 L 777.00 884.00 L 774.10 883.70 L 771.40 883.00 L 768.90 881.80 L 766.70 880.20 L 764.80 878.30 L 763.20 876.10 L 762.00 873.60 L 761.30 870.90 L 761.00 868.00 L 761.30 865.10 L 762.00 862.40 L 763.20 859.90 L 764.80 857.70 L 766.70 855.80 L 768.90 854.20 L 771.40 853.00 L 774.10 852.30 L 777.00 852.00 L 779.90 852.30 L 782.60 853.00 L 785.10 854.20 L 787.30 855.80 L 789.20 857.70 L 790.80 859.90 L 792.00 862.40 L 792.70 865.10 L 793.00 868.00 Z" fill="url(#radialGradient-12)" fill-rule="evenodd" group-id="2" id="椭圆形备份-16" node-id="81" stroke="none" target-height="32" target-width="32" target-x="761" target-y="852"></path></g></svg>